<svg width="220" height="220" viewBox="0 0 220 220" fill="none" xmlns="http://www.w3.org/2000/svg">
<g clip-path="url(#clip0_2408_10)">
<path d="M110 220C170.751 220 220 170.751 220 110C220 49.2487 170.751 0 110 0C49.2487 0 0 49.2487 0 110C0 170.751 49.2487 220 110 220Z" fill="#9391F7"/>
<path d="M89.5504 115.365C98.9827 113.834 105.388 104.945 103.857 95.5129C102.326 86.0804 93.4376 79.675 84.0055 81.2061C74.573 82.7373 68.1676 91.6248 69.6987 101.058C71.2298 110.49 80.1176 116.895 89.5504 115.365Z" fill="white"/>
<path d="M134.774 115.365C144.206 113.834 150.612 104.945 149.08 95.5129C147.55 86.0804 138.661 79.675 129.229 81.2061C119.797 82.7373 113.391 91.6248 114.922 101.058C116.454 110.49 125.341 116.895 134.774 115.365Z" fill="white"/>
<path d="M109.361 26.8606C62.3801 26.8606 24.2904 65.6758 24.3027 113.542H46.0325C46.0325 77.67 74.1612 48.5863 109.361 48.5863C144.561 48.5863 172.69 77.67 172.69 113.542H194.419C194.427 65.6758 156.338 26.8606 109.361 26.8606Z" fill="white"/>
</g>
<defs>
<clipPath id="clip0_2408_10">
<rect width="220" height="220" fill="white"/>
</clipPath>
</defs>
</svg>
