<svg width="534" height="534" viewBox="0 0 534 534" fill="none" xmlns="http://www.w3.org/2000/svg">
<path d="M266.667 533.333C413.943 533.333 533.333 413.943 533.333 266.667C533.333 119.391 413.943 0 266.667 0C119.391 0 0 119.391 0 266.667C0 413.943 119.391 533.333 266.667 533.333Z" fill="#0B0E11"/>
<path d="M191.864 235.931L266.668 161.129L341.509 235.971L385.035 192.443L266.668 74.0739L148.337 192.404L191.864 235.931ZM117.602 223.137L161.128 266.663L117.599 310.191L74.0737 266.665L117.602 223.137ZM191.864 297.401L266.668 372.201L341.508 297.363L385.058 340.868L385.035 340.89L266.668 459.259L148.335 340.929L148.275 340.869L191.864 297.401ZM459.263 266.671L415.737 310.196L372.212 266.671L415.737 223.144L459.263 266.671Z" fill="#F0B90B"/>
<path d="M310.814 266.644H310.834L266.666 222.475L222.476 266.665L222.536 266.727L266.666 310.857L310.855 266.665L310.814 266.644Z" fill="#F0B90B"/>
</svg>
