<svg width="24" height="24" viewBox="0 0 24 24" fill="none" xmlns="http://www.w3.org/2000/svg">
<g clip-path="url(#clip0_2609_3165)">
<path d="M12 24C18.6276 24 24 18.6276 24 12C24 5.3724 18.6276 0 12 0C5.3724 0 0 5.3724 0 12C0 18.6276 5.3724 24 12 24Z" fill="#F0F0F0"/>
<path d="M24 11.9991C24.0006 9.74175 23.3645 7.53004 22.1648 5.61795C20.9651 3.70586 19.2504 2.17093 17.2176 1.18945V22.8087C19.2504 21.8272 20.9651 20.2922 22.1648 18.3802C23.3645 16.4681 24.0006 14.2564 24 11.9991ZM3.02964e-07 11.9991C-0.000506866 14.2565 0.635755 16.4683 1.8357 18.3804C3.03565 20.2925 4.75061 21.8273 6.7836 22.8087V1.18945C4.75061 2.17076 3.03565 3.70561 1.8357 5.61772C0.635755 7.52982 -0.000506866 9.74162 3.02964e-07 11.9991ZM14.0868 13.5639L16.1748 12.5199L15.1308 11.9991V10.9551L13.0428 11.9991L14.0868 9.91105H13.0428L12 8.34625L10.956 9.91225H9.9132L10.9572 11.9991L8.8692 10.9551V11.9991L7.8264 12.5211L9.9144 13.5651L9.3912 14.6079H11.4792V16.1727H12.522V14.6079H14.61L14.0868 13.5639Z" fill="#D80027"/>
</g>
<defs>
<clipPath id="clip0_2609_3165">
<rect width="24" height="24" fill="white"/>
</clipPath>
</defs>
</svg>
