<svg width="24" height="24" viewBox="0 0 24 24" fill="none" xmlns="http://www.w3.org/2000/svg">
<g clip-path="url(#clip0_2609_3163)">
<path d="M12 24C18.6276 24 24 18.6276 24 12C24 5.3724 18.6276 0 12 0C5.3724 0 0 5.3724 0 12C0 18.6276 5.3724 24 12 24Z" fill="#F0F0F0"/>
<path d="M23.8976 10.4352H9.39076V0.2856C10.2308 0.0996 11.1032 0 11.9996 0C18.0956 0 23.1308 4.548 23.8976 10.4352ZM6.25996 1.4592V10.4352H0.101562C0.348438 8.5597 1.03495 6.76907 2.10515 5.20923C3.17535 3.64938 4.59896 2.36447 6.25996 1.4592ZM6.25996 13.5648H0.101562C0.348438 15.4403 1.03495 17.2309 2.10515 18.7908C3.17535 20.3506 4.59896 21.6355 6.25996 22.5408V13.5648ZM9.39076 23.7144V13.5648H23.8988C23.1296 19.4532 18.0956 24 11.9996 24C11.1032 24 10.2308 23.9004 9.39076 23.7144Z" fill="#D80027"/>
</g>
<defs>
<clipPath id="clip0_2609_3163">
<rect width="24" height="24" fill="white"/>
</clipPath>
</defs>
</svg>
