<svg width="220" height="220" viewBox="0 0 220 220" fill="none" xmlns="http://www.w3.org/2000/svg">
<rect width="220" height="220" rx="110" fill="#E6007A"/>
<g clip-path="url(#clip0_2411_57)">
<path d="M109.494 63.5588C125.487 63.5588 138.451 56.0464 138.451 46.7794C138.451 37.5124 125.487 30 109.494 30C93.502 30 80.5377 37.5124 80.5377 46.7794C80.5377 56.0464 93.502 63.5588 109.494 63.5588Z" fill="white"/>
<path d="M109.494 189.989C125.487 189.989 138.451 182.476 138.451 173.209C138.451 163.942 125.487 156.43 109.494 156.43C93.502 156.43 80.5377 163.942 80.5377 173.209C80.5377 182.476 93.502 189.989 109.494 189.989Z" fill="white"/>
<path d="M69.1414 86.7854C77.1375 72.9868 77.0856 58.042 69.0255 53.4054C60.9653 48.7688 47.9491 56.196 39.953 69.9946C31.9569 83.7933 32.0088 98.738 40.0689 103.375C48.1291 108.011 61.1453 100.584 69.1414 86.7854Z" fill="white"/>
<path d="M179.023 149.993C187.019 136.194 186.972 121.252 178.917 116.618C170.862 111.985 157.851 119.415 149.855 133.213C141.858 147.012 141.906 161.954 149.961 166.588C158.015 171.221 171.027 163.791 179.023 149.993Z" fill="white"/>
<path d="M69.0295 166.584C77.0897 161.947 77.1416 147.002 69.1454 133.204C61.1493 119.405 48.1331 111.978 40.073 116.615C32.0128 121.251 31.9609 136.196 39.957 149.995C47.9532 163.793 60.9694 171.221 69.0295 166.584Z" fill="white"/>
<path d="M178.924 103.378C186.979 98.7449 187.026 83.8027 179.03 70.004C171.034 56.2054 158.022 48.7756 149.967 53.4091C141.913 58.0426 141.865 72.9848 149.861 86.7834C157.857 100.582 170.869 108.012 178.924 103.378Z" fill="white"/>
</g>
<defs>
<clipPath id="clip0_2411_57">
<rect width="151" height="160" fill="white" transform="translate(34 30)"/>
</clipPath>
</defs>
</svg>
