<svg width="24" height="24" viewBox="0 0 24 24" fill="none" xmlns="http://www.w3.org/2000/svg">
<g clip-path="url(#clip0_2609_3162)">
<path d="M12 24C18.6274 24 24 18.6274 24 12C24 5.37258 18.6274 0 12 0C5.37258 0 0 5.37258 0 12C0 18.6274 5.37258 24 12 24Z" fill="#D80027"/>
<path d="M14.0046 4.0513C13.8113 4.11424 13.6348 4.22167 13.4889 4.36524C13.3429 4.50881 13.2316 4.68464 13.1634 4.87909C13.0952 5.07353 13.072 5.28134 13.0956 5.48637C13.1193 5.69139 13.1891 5.88812 13.2997 6.06125C13.4698 6.32751 13.5804 6.62843 13.6237 6.94282C13.6671 7.25722 13.6421 7.57745 13.5506 7.88099C13.4591 8.18452 13.3033 8.46398 13.0941 8.69969C12.8849 8.9354 12.6275 9.12164 12.3399 9.2453C12.0566 9.3671 11.8081 9.5596 11.6174 9.80498C11.4267 10.0504 11.3 10.3407 11.249 10.6491C11.1979 10.9574 11.2243 11.2739 11.3255 11.5692C11.4268 11.8645 11.5997 12.1291 11.8282 12.3384C11.1409 11.8412 10.6718 11.0907 10.521 10.247C10.3701 9.40321 10.5495 8.53293 11.0208 7.82168C11.0025 7.80575 10.985 7.78893 10.9683 7.77129C10.486 8.4935 10.2991 9.37814 10.447 10.238C10.595 11.0979 11.0661 11.8655 11.7609 12.3784C10.7865 11.9816 9.98987 11.2342 9.52275 10.2787C9.05563 9.32307 8.95073 8.22615 9.22804 7.19699C9.50535 6.16782 10.1455 5.2784 11.0264 4.69825C11.9073 4.11811 12.9674 3.88783 14.0046 4.0513Z" fill="#F0F0F0"/>
<path d="M11.9583 6.66257L10.8018 7.25643L12.0339 7.57636L11.1968 6.46484L11.3191 7.94338" fill="#D80027"/>
<path d="M20.6098 11.7361C20.489 11.5684 20.3312 11.4308 20.1486 11.334C19.966 11.2371 19.7635 11.1837 19.5569 11.1778C19.3503 11.172 19.1452 11.2138 18.9574 11.3002C18.7696 11.3865 18.6042 11.515 18.4742 11.6756C18.2741 11.9226 18.0224 12.1227 17.7366 12.262C17.4509 12.4012 17.1381 12.4761 16.8203 12.4815C16.5025 12.4868 16.1874 12.4224 15.8972 12.2928C15.6069 12.1633 15.3486 11.9716 15.1404 11.7315C14.9353 11.4949 14.6739 11.3139 14.3802 11.2052C14.0866 11.0966 13.7703 11.0637 13.4606 11.1097C13.1509 11.1558 12.8579 11.2792 12.6085 11.4685C12.3592 11.6579 12.1617 11.9071 12.0342 12.1931C12.2915 11.3739 12.8585 10.6877 13.6145 10.2806C14.3705 9.87353 15.2556 9.77789 16.0811 10.0141C16.0905 9.99145 16.101 9.9693 16.1125 9.94769C15.2732 9.70429 14.372 9.79702 13.5998 10.2062C12.8276 10.6155 12.2449 11.3091 11.975 12.1403C12.0463 11.0744 12.5074 10.0719 13.2704 9.32407C14.0333 8.57622 15.0448 8.1353 16.112 8.08534C17.1792 8.03539 18.2275 8.37989 19.057 9.05319C19.8864 9.72648 20.4392 10.6815 20.6098 11.7361Z" fill="#F0F0F0"/>
<path d="M17.4397 10.693L16.4791 9.60953L16.6194 11.0507L17.353 9.80227L16.0257 10.3811" fill="#D80027"/>
<path d="M5.34572 17.9649C5.54201 18.0296 5.75057 18.0482 5.95521 18.0192C6.15985 17.9902 6.35504 17.9144 6.52563 17.7977C6.69621 17.681 6.83759 17.5265 6.93878 17.3463C7.03996 17.1661 7.09823 16.965 7.10906 16.7586C7.1257 16.4412 7.21171 16.1313 7.36103 15.8507C7.51035 15.5701 7.71936 15.3256 7.97334 15.1345C8.22731 14.9434 8.52009 14.8103 8.83106 14.7445C9.14203 14.6787 9.46363 14.6819 9.77324 14.7538C10.0782 14.8247 10.3961 14.8174 10.6976 14.7327C10.999 14.6481 11.2742 14.4887 11.4977 14.2695C11.7212 14.0502 11.8857 13.7781 11.9761 13.4783C12.0665 13.1786 12.0799 12.8609 12.0149 12.5546C12.2883 13.3685 12.2329 14.257 11.8605 15.0307C11.4882 15.8044 10.8284 16.402 10.0217 16.6961C10.0274 16.72 10.0319 16.7441 10.0353 16.7683C10.8574 16.4719 11.5319 15.8672 11.9161 15.0822C12.3003 14.2972 12.3641 13.3936 12.0938 12.5625C12.6627 13.4668 12.8789 14.5488 12.7012 15.6023C12.5235 16.6558 11.9644 17.607 11.1304 18.2747C10.2963 18.9424 9.24579 19.2798 8.17896 19.2227C7.11213 19.1655 6.10364 18.7178 5.34572 17.9649Z" fill="#F0F0F0"/>
<path d="M8.52288 16.9467L9.93693 17.2586L8.97624 16.1751L9.11662 17.6163L9.85018 16.3679" fill="#D80027"/>
<path d="M15.2404 20.3954C15.3626 20.2287 15.4447 20.0361 15.4804 19.8325C15.5161 19.6289 15.5043 19.4199 15.446 19.2216C15.3878 19.0233 15.2846 18.8411 15.1444 18.6892C15.0043 18.5372 14.831 18.4197 14.6381 18.3456C14.3414 18.2317 14.0732 18.0541 13.8525 17.8254C13.6318 17.5967 13.4639 17.3224 13.3606 17.0218C13.2573 16.7212 13.2212 16.4016 13.2547 16.0855C13.2882 15.7694 13.3907 15.4645 13.5547 15.1923C13.7163 14.9242 13.8077 14.6196 13.8203 14.3067C13.8329 13.9939 13.7664 13.6829 13.627 13.4026C13.4875 13.1223 13.2796 12.8817 13.0224 12.7031C12.7653 12.5245 12.4672 12.4136 12.1558 12.3808C13.0144 12.3723 13.8423 12.6995 14.4631 13.2927C15.0838 13.8859 15.4483 14.6981 15.4788 15.5562C15.5032 15.5582 15.5275 15.5613 15.5516 15.5656C15.5237 14.6921 15.1571 13.8637 14.5292 13.2558C13.9014 12.6478 13.0617 12.308 12.1877 12.3081C13.2235 12.0466 14.3194 12.1753 15.2664 12.6698C16.2134 13.1644 16.9454 13.9901 17.3226 14.9896C17.6999 15.9892 17.6962 17.0926 17.3122 18.0895C16.9282 19.0865 16.1907 19.9073 15.2404 20.3954Z" fill="#F0F0F0"/>
<path d="M15.2533 17.0598L15.9869 15.8113L14.6596 16.3902L16.0737 16.702L15.113 15.6186" fill="#D80027"/>
<path d="M4.59905 7.80342C4.59816 8.0101 4.64494 8.2142 4.73575 8.39986C4.82656 8.58552 4.95896 8.74774 5.12265 8.87392C5.28635 9.00009 5.47694 9.08682 5.6796 9.12737C5.88226 9.16791 6.09155 9.16118 6.29119 9.10769C6.59821 9.02544 6.91953 9.01147 7.23253 9.06678C7.54553 9.12208 7.84261 9.24532 8.10285 9.42781C8.36309 9.61029 8.58018 9.8476 8.73883 10.123C8.89747 10.3985 8.99383 10.7053 9.02111 11.022C9.04798 11.3339 9.15312 11.634 9.32679 11.8945C9.50045 12.1551 9.73703 12.3675 10.0146 12.5123C10.2922 12.6571 10.6019 12.7296 10.9149 12.7229C11.2279 12.7163 11.5342 12.6307 11.8054 12.4743C11.1158 12.9858 10.2536 13.2077 9.40278 13.0927C8.55191 12.9777 7.77965 12.5348 7.25064 11.8585C7.22972 11.8713 7.2082 11.883 7.18615 11.8937C7.72215 12.584 8.5057 13.0386 9.37098 13.1615C10.2363 13.2843 11.1154 13.0657 11.8223 12.5518C11.1381 13.3723 10.1758 13.9123 9.11897 14.0688C8.06214 14.2254 6.98466 13.9875 6.09192 13.4007C5.19919 12.8138 4.55362 11.919 4.2783 10.8867C4.00298 9.85441 4.11715 8.75692 4.59905 7.80342Z" fill="#F0F0F0"/>
<path d="M6.54951 10.5121L6.68989 11.9533L7.42344 10.7048L6.09615 11.2837L7.5102 11.5955" fill="#D80027"/>
</g>
<defs>
<clipPath id="clip0_2609_3162">
<rect width="24" height="24" fill="white"/>
</clipPath>
</defs>
</svg>
