<svg width="24" height="24" viewBox="0 0 24 24" fill="none" xmlns="http://www.w3.org/2000/svg">
<g clip-path="url(#clip0_3359_3038)">
<rect width="24" height="24" rx="12" fill="white"/>
<path d="M0 16H24V24H0V16Z" fill="#026937"/>
<path d="M0 8H24V16H0V8Z" fill="#F7F8FA"/>
<path d="M0 0H24V8H0V0Z" fill="#F15B2A"/>
<path d="M12.0054 15.5361C13.93 15.5361 15.4902 13.9759 15.4902 12.0513C15.4902 10.1266 13.93 8.56641 12.0054 8.56641C10.0807 8.56641 8.52051 10.1266 8.52051 12.0513C8.52051 13.9759 10.0807 15.5361 12.0054 15.5361Z" fill="#06038D"/>
<path d="M12.0063 15.0985C13.6903 15.0985 15.0555 13.7333 15.0555 12.0493C15.0555 10.3652 13.6903 9 12.0063 9C10.3222 9 8.95703 10.3652 8.95703 12.0493C8.95703 13.7333 10.3222 15.0985 12.0063 15.0985Z" fill="white"/>
<path d="M12.0054 12.6611C12.3422 12.6611 12.6152 12.3881 12.6152 12.0513C12.6152 11.7144 12.3422 11.4414 12.0054 11.4414C11.6685 11.4414 11.3955 11.7144 11.3955 12.0513C11.3955 12.3881 11.6685 12.6611 12.0054 12.6611Z" fill="#06038D"/>
<path d="M15.0078 12.6015C15.0913 12.6125 15.1679 12.5537 15.1789 12.4703C15.1899 12.3868 15.1311 12.3102 15.0476 12.2992C14.9642 12.2882 14.8876 12.347 14.8766 12.4305C14.8656 12.5139 14.9244 12.5905 15.0078 12.6015Z" fill="#06038D"/>
<path d="M12.0049 15.1012L12.1095 13.2716L12.0049 12.4004L11.9004 13.2716L12.0049 15.1012Z" fill="#06038D"/>
<path d="M14.7621 13.3577C14.8388 13.3888 14.9279 13.3501 14.9613 13.2712C14.9947 13.1923 14.9596 13.1031 14.8829 13.072C14.8063 13.0409 14.7171 13.0796 14.6837 13.1585C14.6504 13.2373 14.6855 13.3265 14.7621 13.3577Z" fill="#06038D"/>
<path d="M11.2102 14.995L11.7866 13.2507L11.9199 12.3827L11.5953 13.2001L11.2102 14.995Z" fill="#06038D"/>
<path d="M14.3293 14.0322C14.3949 14.0822 14.4906 14.0678 14.543 13.9998C14.5955 13.9318 14.5848 13.8361 14.5192 13.786C14.4536 13.7359 14.3579 13.7504 14.3054 13.8184C14.253 13.8864 14.2637 13.9821 14.3293 14.0322Z" fill="#06038D"/>
<path d="M10.4766 14.6962L11.4831 13.1588L11.8341 12.3528L11.3092 13.0587L10.4766 14.6962Z" fill="#06038D"/>
<path d="M13.7417 14.5663C13.7919 14.632 13.8876 14.643 13.9554 14.5907C14.0233 14.5384 14.0376 14.4427 13.9874 14.3769C13.9372 14.3111 13.8415 14.3002 13.7736 14.3525C13.7058 14.4048 13.6915 14.5005 13.7417 14.5663Z" fill="#06038D"/>
<path d="M9.84852 14.2086L11.217 12.9834L11.763 12.2943L11.0738 12.8402L9.84852 14.2086Z" fill="#06038D"/>
<path d="M13.0346 14.9232C13.0681 15.0023 13.1573 15.0413 13.2338 15.0103C13.3103 14.9794 13.3452 14.8902 13.3117 14.8111C13.2781 14.7321 13.189 14.6931 13.1124 14.724C13.0359 14.7549 13.0011 14.8441 13.0346 14.9232Z" fill="#06038D"/>
<path d="M9.36883 13.572L11.0047 12.7565L11.7031 12.229L10.8955 12.568L9.36883 13.572Z" fill="#06038D"/>
<path d="M12.2558 15.0948C12.2681 15.1796 12.3447 15.2405 12.4269 15.2308C12.5091 15.2212 12.5657 15.1446 12.5535 15.0598C12.5412 14.975 12.4646 14.9141 12.3824 14.9238C12.3002 14.9335 12.2435 15.0101 12.2558 15.0948Z" fill="#06038D"/>
<path d="M9.0635 12.8412L10.8571 12.482L11.6686 12.1535L10.7993 12.2687L9.0635 12.8412Z" fill="#06038D"/>
<path d="M11.4546 15.0558C11.445 15.1381 11.506 15.2147 11.5908 15.2269C11.6757 15.2391 11.7523 15.1823 11.7619 15.1001C11.7715 15.0178 11.7105 14.9413 11.6257 14.929C11.5408 14.9168 11.4642 14.9736 11.4546 15.0558Z" fill="#06038D"/>
<path d="M8.96014 12.0373L10.789 12.1485L11.6572 12.0743L10.7853 11.9763L8.96014 12.0373Z" fill="#06038D"/>
<path d="M10.6999 14.8144C10.6682 14.8917 10.7062 14.9809 10.7846 15.0136C10.863 15.0463 10.9522 15.0102 10.9838 14.9329C11.0154 14.8556 10.9775 14.7664 10.8991 14.7337C10.8207 14.701 10.7315 14.7371 10.6999 14.8144Z" fill="#06038D"/>
<path d="M9.06145 11.262L10.8039 11.8374L11.6722 11.9658L10.8561 11.6402L9.06145 11.262Z" fill="#06038D"/>
<path d="M10.0307 14.3832C9.97827 14.4512 9.98892 14.5469 10.0545 14.597C10.1201 14.647 10.2158 14.6325 10.2683 14.5645C10.3207 14.4965 10.3101 14.4008 10.2445 14.3507C10.1789 14.3007 10.0832 14.3152 10.0307 14.3832Z" fill="#06038D"/>
<path d="M9.36798 10.5346L10.8946 11.5386L11.7022 11.8775L11.0039 11.35L9.36798 10.5346Z" fill="#06038D"/>
<path d="M9.49835 13.7889C9.43033 13.8414 9.41576 13.9371 9.46581 14.0027C9.51586 14.0683 9.61157 14.079 9.67958 14.0266C9.7476 13.9742 9.76216 13.8784 9.71212 13.8128C9.66207 13.7472 9.56636 13.7365 9.49835 13.7889Z" fill="#06038D"/>
<path d="M9.85412 9.90095L11.0673 11.2676L11.7582 11.8052L11.2207 11.1142L9.85412 9.90095Z" fill="#06038D"/>
<path d="M9.13477 13.0802C9.05604 13.1133 9.01759 13.2025 9.04887 13.2794C9.08016 13.3564 9.16935 13.3919 9.24808 13.3588C9.3268 13.3257 9.36526 13.2365 9.33397 13.1596C9.30268 13.0827 9.2135 13.0471 9.13477 13.0802Z" fill="#06038D"/>
<path d="M10.4866 9.4154L11.3044 11.0515L11.8316 11.7511L11.4909 10.9438L10.4866 9.4154Z" fill="#06038D"/>
<path d="M8.96603 12.2985C8.8816 12.3103 8.8213 12.3869 8.83134 12.4695C8.84138 12.5521 8.91796 12.6095 9.0024 12.5976C9.08683 12.5858 9.14713 12.5092 9.13709 12.4266C9.12705 12.344 9.05047 12.2866 8.96603 12.2985Z" fill="#06038D"/>
<path d="M11.2217 9.10758L11.5846 10.9014L11.9125 11.7138L11.7947 10.8448L11.2217 9.10758Z" fill="#06038D"/>
<path d="M9.00653 11.5037C8.92444 11.4939 8.84785 11.5547 8.83547 11.6394C8.82309 11.7241 8.87961 11.8006 8.96171 11.8104C9.0438 11.8202 9.12039 11.7595 9.13276 11.6748C9.14514 11.5901 9.08863 11.5135 9.00653 11.5037Z" fill="#06038D"/>
<path d="M12.0269 9.00736L11.9152 10.8363L11.9862 11.7048L12.0835 10.833L12.0269 9.00736Z" fill="#06038D"/>
<path d="M9.24978 10.7401C9.17316 10.7089 9.08397 10.7476 9.05058 10.8264C9.01718 10.9053 9.05222 10.9944 9.12884 11.0256C9.20546 11.0568 9.29465 11.0181 9.32805 10.9393C9.36144 10.8604 9.3264 10.7712 9.24978 10.7401Z" fill="#06038D"/>
<path d="M12.8019 9.10271L12.2255 10.8469L12.092 11.7149L12.4165 10.8976L12.8019 9.10271Z" fill="#06038D"/>
<path d="M9.68172 10.0675C9.61615 10.0174 9.52044 10.0319 9.46795 10.0998C9.41546 10.1678 9.42606 10.2635 9.49163 10.3136C9.5572 10.3637 9.65291 10.3492 9.7054 10.2812C9.75789 10.2133 9.74729 10.1176 9.68172 10.0675Z" fill="#06038D"/>
<path d="M13.5355 9.40737L12.5289 10.9447L12.1778 11.7507L12.7026 11.0449L13.5355 9.40737Z" fill="#06038D"/>
<path d="M10.2729 9.53511C10.2229 9.46944 10.1272 9.45869 10.0591 9.51108C9.99112 9.56348 9.97654 9.65919 10.0266 9.72485C10.0766 9.79052 10.1723 9.80127 10.2404 9.74888C10.3084 9.69648 10.323 9.60077 10.2729 9.53511Z" fill="#06038D"/>
<path d="M14.1653 9.88878L12.7967 11.1146L12.2501 11.8036L12.9391 11.2573L14.1653 9.88878Z" fill="#06038D"/>
<path d="M10.9781 9.18032C10.9446 9.10125 10.8554 9.06223 10.7789 9.09317C10.7024 9.12411 10.6675 9.2133 10.701 9.29237C10.7346 9.37144 10.8237 9.41046 10.9002 9.37952C10.9767 9.34858 11.0116 9.25939 10.9781 9.18032Z" fill="#06038D"/>
<path d="M14.6439 10.5316L13.008 11.347L12.3096 11.8745L13.1172 11.5356L14.6439 10.5316Z" fill="#06038D"/>
<path d="M11.7569 9.01258C11.7446 8.92779 11.668 8.8669 11.5858 8.87659C11.5036 8.88627 11.4469 8.96285 11.4592 9.04765C11.4715 9.13244 11.5481 9.19332 11.6303 9.18364C11.7125 9.17396 11.7692 9.09737 11.7569 9.01258Z" fill="#06038D"/>
<path d="M14.9502 11.2701L13.1566 11.6293L12.3451 11.9578L13.2144 11.8426L14.9502 11.2701Z" fill="#06038D"/>
<path d="M12.5564 9.05259C12.5659 8.97052 12.5046 8.89394 12.4196 8.88153C12.3346 8.86912 12.258 8.92559 12.2486 9.00766C12.2391 9.08972 12.3004 9.16631 12.3854 9.17872C12.4704 9.19112 12.547 9.13465 12.5564 9.05259Z" fill="#06038D"/>
<path d="M15.0529 12.0729L13.2241 11.961L12.3563 12.0314L13.2283 12.1286L15.0529 12.0729Z" fill="#06038D"/>
<path d="M13.3132 9.29617C13.3446 9.2191 13.3063 9.12992 13.2277 9.09697C13.1491 9.06402 13.0599 9.09979 13.0285 9.17686C12.9971 9.25393 13.0354 9.34311 13.114 9.37606C13.1927 9.40901 13.2818 9.37324 13.3132 9.29617Z" fill="#06038D"/>
<path d="M14.9516 12.8485L13.2083 12.2728L12.3402 12.1427L13.1569 12.4679L14.9516 12.8485Z" fill="#06038D"/>
<path d="M13.9882 9.72798C14.0388 9.66176 14.0252 9.56605 13.9578 9.51421C13.8904 9.46237 13.7947 9.47403 13.744 9.54025C13.6934 9.60647 13.707 9.70218 13.7744 9.75402C13.8418 9.80586 13.9375 9.7942 13.9882 9.72798Z" fill="#06038D"/>
<path d="M14.6502 13.5796L13.1153 12.5736L12.3089 12.2257L13.0131 12.7512L14.6502 13.5796Z" fill="#06038D"/>
<path d="M14.5226 10.3183C14.5887 10.2676 14.6003 10.1719 14.5484 10.1045C14.4966 10.0372 14.4009 10.0236 14.3347 10.0743C14.2685 10.1249 14.2569 10.2206 14.3088 10.288C14.3607 10.3554 14.4564 10.369 14.5226 10.3183Z" fill="#06038D"/>
<path d="M14.1667 14.2109L12.9436 12.8428L12.2542 12.2985L12.7986 12.988L14.1667 14.2109Z" fill="#06038D"/>
<path d="M14.8836 11.0272C14.9608 10.9956 14.9968 10.9064 14.964 10.828C14.9312 10.7497 14.842 10.7118 14.7648 10.7435C14.6876 10.7751 14.6516 10.8643 14.6844 10.9427C14.7172 11.021 14.8064 11.0589 14.8836 11.0272Z" fill="#06038D"/>
<path d="M13.5325 14.692L12.7042 13.055L12.1787 12.3511L12.5265 13.1575L13.5325 14.692Z" fill="#06038D"/>
<path d="M15.0534 11.805C15.1363 11.7946 15.1941 11.718 15.1825 11.634C15.1709 11.5499 15.0943 11.4902 15.0114 11.5007C14.9285 11.5111 14.8707 11.5877 14.8823 11.6717C14.8939 11.7558 14.9705 11.8155 15.0534 11.805Z" fill="#06038D"/>
<path d="M12.8005 14.9962L12.4222 13.2016L12.0966 12.3859L12.2251 13.2542L12.8005 14.9962Z" fill="#06038D"/>
</g>
<defs>
<clipPath id="clip0_3359_3038">
<rect width="24" height="24" rx="12" fill="white"/>
</clipPath>
</defs>
</svg>
