<svg width="24" height="24" viewBox="0 0 24 24" fill="none" xmlns="http://www.w3.org/2000/svg">
<g clip-path="url(#clip0_2609_3161)">
<path d="M12 24C18.6276 24 24 18.6276 24 12C24 5.3724 18.6276 0 12 0C5.3724 0 0 5.3724 0 12C0 18.6276 5.3724 24 12 24Z" fill="#F0F0F0"/>
<path d="M12 16C12.5253 16 13.0454 15.8965 13.5307 15.6955C14.016 15.4945 14.457 15.1999 14.8284 14.8284C15.1999 14.457 15.4945 14.016 15.6955 13.5307C15.8965 13.0454 16 12.5253 16 12C16 11.4747 15.8965 10.9546 15.6955 10.4693C15.4945 9.98396 15.1999 9.54301 14.8284 9.17157C14.457 8.80014 14.016 8.5055 13.5307 8.30448C13.0454 8.10346 12.5253 8 12 8C10.9391 8 9.92172 8.42143 9.17157 9.17157C8.42143 9.92172 8 10.9391 8 12C8 13.0609 8.42143 14.0783 9.17157 14.8284C9.92172 15.5786 10.9391 16 12 16Z" fill="#D80027"/>
</g>
<defs>
<clipPath id="clip0_2609_3161">
<rect width="24" height="24" fill="white"/>
</clipPath>
</defs>
</svg>
