<svg width="24" height="24" viewBox="0 0 24 24" fill="none" xmlns="http://www.w3.org/2000/svg">
<g clip-path="url(#clip0_2609_3160)">
<path d="M12 24C18.6276 24 24 18.6276 24 12C24 5.3724 18.6276 0 12 0C5.3724 0 0 5.3724 0 12C0 18.6276 5.3724 24 12 24Z" fill="#F0F0F0"/>
<path d="M16.1734 12.0004C16.1734 13.0444 14.305 15.652 11.9998 15.652C9.69577 15.652 7.82617 13.0444 7.82617 12.0004C7.82617 10.8933 8.26595 9.83158 9.04877 9.04877C9.83158 8.26595 10.8933 7.82617 12.0004 7.82617C13.1074 7.82617 14.1692 8.26595 14.952 9.04877C15.7348 9.83158 16.1746 10.8933 16.1746 12.0004H16.1734Z" fill="#D80027"/>
<path d="M16.1734 12C16.1734 13.1069 15.7337 14.1685 14.951 14.9512C14.1683 15.7339 13.1067 16.1736 11.9998 16.1736C10.8929 16.1736 9.83129 15.7339 9.04859 14.9512C8.26589 14.1685 7.82617 13.1069 7.82617 12" fill="#0052B4"/>
<path d="M17.5342 14.5832L16.4266 15.6896L17.1646 16.4276L18.2722 15.3212L17.5342 14.5832ZM15.6886 16.4288L14.5822 17.5352L15.3202 18.2732L16.4266 17.1656L15.6886 16.4276V16.4288ZM19.7483 16.796L18.6406 17.9036L19.3786 18.6404L20.485 17.534L19.7483 16.796ZM17.9026 18.6416L16.7962 19.748L17.5342 20.486L18.6406 19.3796L17.9026 18.6416ZM18.6406 15.6896L17.5342 16.7972L18.2722 17.534L19.3786 16.4276L18.6406 15.6896ZM16.7974 17.5352L15.6898 18.6416L16.4278 19.3796L17.5342 18.272L16.7962 17.5352H16.7974ZM15.6898 5.36003L18.6418 8.31203L19.3786 7.57283L16.4278 4.62203L15.6898 5.36003ZM14.5834 6.46763L15.6898 7.57403L16.4278 6.83603L15.3214 5.72963L14.5834 6.46763ZM16.4278 8.31203L17.5342 9.41843L18.2722 8.68043L17.1646 7.57403L16.4278 8.31203ZM16.7962 4.25363L17.9026 5.36003L18.6406 4.62203L17.533 3.51562L16.7962 4.25363ZM18.6406 6.09803L19.7483 7.20443L20.485 6.46763L19.3786 5.36003L18.6406 6.09803ZM7.20465 19.748L4.25265 16.796L3.51465 17.5352L6.46665 20.4872L7.20465 19.748ZM8.31105 18.6416L7.20465 17.534L6.46665 18.272L7.57305 19.3784L8.31105 18.6416ZM6.46545 16.7972L5.35905 15.6896L4.62225 16.4276L5.72865 17.534L6.46665 16.7972H6.46545ZM9.41745 17.534L6.46545 14.5832L5.72865 15.3212L8.68065 18.2732L9.41745 17.534ZM4.25265 7.20443L7.20465 4.25243L6.46665 3.51562L3.51465 6.46763L4.25265 7.20443ZM5.35905 8.31083L8.31105 5.35883L7.57305 4.62203L4.62105 7.57403L5.35905 8.31083ZM6.46665 9.41843L9.41865 6.46643L8.68065 5.72963L5.72865 8.68163L6.46665 9.41843Z" fill="black"/>
</g>
<defs>
<clipPath id="clip0_2609_3160">
<rect width="24" height="24" fill="white"/>
</clipPath>
</defs>
</svg>
