<svg width="220" height="220" viewBox="0 0 220 220" fill="none" xmlns="http://www.w3.org/2000/svg">
<rect width="220" height="220" rx="110" fill="white"/>
<g clip-path="url(#clip0_2405_42)">
<path d="M147.166 54.3889L121.084 93.1389C119.281 95.7778 122.749 98.9722 125.246 96.75L150.912 74.3889C151.606 73.8333 152.577 74.25 152.577 75.2222V145.083C152.577 146.056 151.329 146.472 150.774 145.778L73.0821 52.7222C70.5849 49.6667 66.9778 48 62.9545 48H60.1798C52.9656 48 47 53.9722 47 61.3333V159.667C47 167.028 52.9656 173 60.3185 173C64.8968 173 69.1976 170.639 71.6948 166.611L97.7769 127.861C99.5805 125.222 96.1121 122.028 93.6149 124.25L67.9489 146.472C67.2553 147.028 66.2841 146.611 66.2841 145.639V75.9167C66.2841 74.9444 67.5327 74.5278 68.0877 75.2222L145.779 168.278C148.276 171.333 152.022 173 155.907 173H158.681C166.034 173 172 167.028 172 159.667V61.3333C172 53.9722 166.034 48 158.681 48C153.964 48 149.664 50.3611 147.166 54.3889Z" fill="black"/>
</g>
<defs>
<clipPath id="clip0_2405_42">
<rect width="125" height="125" fill="white" transform="translate(47 48)"/>
</clipPath>
</defs>
</svg>
