<svg width="24" height="24" viewBox="0 0 24 24" fill="none" xmlns="http://www.w3.org/2000/svg">
<g clip-path="url(#clip0_2609_3158)">
<path d="M12 24C18.6276 24 24 18.6276 24 12C24 5.3724 18.6276 0 12 0C5.3724 0 0 5.3724 0 12C0 18.6276 5.3724 24 12 24Z" fill="#FFDA44"/>
<path d="M9.39196 10.4352H23.8988C23.1308 4.5468 18.0968 0 11.9996 0C11.1044 0 10.2308 0.0996 9.39076 0.2856V10.4352H9.39196ZM6.26116 10.4352V1.4592C4.59994 2.36433 3.17609 3.64918 2.10568 5.20903C1.03526 6.76888 0.348565 8.55959 0.101562 10.4352H6.26116ZM6.26116 13.5648H0.101562C0.348565 15.4404 1.03526 17.2311 2.10568 18.791C3.17609 20.3508 4.59994 21.6357 6.26116 22.5408V13.5648ZM9.39076 13.5648V23.7144C10.2308 23.9004 11.1044 24 11.9996 24C18.0968 24 23.132 19.452 23.8988 13.5648H9.39076Z" fill="#0052B4"/>
</g>
<defs>
<clipPath id="clip0_2609_3158">
<rect width="24" height="24" fill="white"/>
</clipPath>
</defs>
</svg>
