<svg width="24" height="24" viewBox="0 0 24 24" fill="none" xmlns="http://www.w3.org/2000/svg">
<g clip-path="url(#clip0_3598_2201)">
<path d="M12 24C18.6274 24 24 18.6274 24 12C24 5.37258 18.6274 0 12 0C5.37258 0 0 5.37258 0 12C0 18.6274 5.37258 24 12 24Z" fill="#F0F0F0"/>
<path d="M0 12C0 5.37263 5.37262 0 12 0C18.6274 0 24 5.37263 24 12" fill="#D80027"/>
<path d="M7.30439 6.26077C7.30439 4.51242 8.53312 3.05189 10.1739 2.69353C9.92175 2.6385 9.66014 2.60864 9.39131 2.60864C7.37423 2.60864 5.73914 4.24374 5.73914 6.26081C5.73914 8.27789 7.37423 9.91299 9.39131 9.91299C9.66004 9.91299 9.9217 9.88313 10.1739 9.82805C8.53312 9.46969 7.30439 8.00916 7.30439 6.26077V6.26077Z" fill="#F0F0F0"/>
<path d="M12 2.86951L12.259 3.66662H13.0972L12.4191 4.15932L12.6781 4.95643L12 4.46382L11.3219 4.95643L11.5809 4.15932L10.9028 3.66662H11.741L12 2.86951Z" fill="#F0F0F0"/>
<path d="M9.96688 4.43469L10.2259 5.23185H11.064L10.3859 5.7245L10.645 6.52161L9.96688 6.029L9.28869 6.52161L9.54777 5.7245L8.86963 5.23185H9.7078L9.96688 4.43469Z" fill="#F0F0F0"/>
<path d="M14.0333 4.43469L14.2924 5.23185H15.1305L14.4524 5.7245L14.7115 6.52161L14.0333 6.029L13.3552 6.52161L13.6143 5.7245L12.9362 5.23185H13.7743L14.0333 4.43469Z" fill="#F0F0F0"/>
<path d="M13.2507 6.78259L13.5098 7.57975H14.3479L13.6698 8.0724L13.9288 8.86951L13.2507 8.3769L12.5726 8.86951L12.8317 8.0724L12.1536 7.57975H12.9916L13.2507 6.78259Z" fill="#F0F0F0"/>
<path d="M10.7494 6.78259L11.0084 7.57975H11.8466L11.1685 8.0724L11.4276 8.86951L10.7494 8.3769L10.0713 8.86951L10.3303 8.0724L9.65222 7.57975H10.4904L10.7494 6.78259Z" fill="#F0F0F0"/>
</g>
<defs>
<clipPath id="clip0_3598_2201">
<rect width="24" height="24" fill="white"/>
</clipPath>
</defs>
</svg>
