<svg width="220" height="220" viewBox="0 0 220 220" fill="none" xmlns="http://www.w3.org/2000/svg">
<rect width="220" height="220" rx="110" fill="#008CE7"/>
<g clip-path="url(#clip0_2405_41)">
<path fill-rule="evenodd" clip-rule="evenodd" d="M147.241 96.8779C153.689 104.953 157.575 115.212 157.575 126.336C157.575 137.459 153.607 148.006 146.952 156.164L146.373 156.864L146.208 155.958C146.084 155.216 145.919 154.434 145.753 153.651C142.447 139.107 131.617 126.624 113.761 116.489C101.733 109.691 94.8307 101.492 93.012 92.1811C91.8547 86.166 92.7227 80.1097 94.376 74.9186C96.0707 69.7274 98.5507 65.4015 100.659 62.8059L107.603 54.36C108.801 52.8768 111.116 52.8768 112.315 54.36L147.241 96.8779ZM158.195 88.432L111.736 31.8239C110.868 30.7527 109.173 30.7527 108.305 31.8239L61.8053 88.432L61.64 88.638C53.1253 99.2262 48 112.657 48 127.283C48 161.355 75.776 189 110 189C144.224 189 172 161.355 172 127.283C172 112.657 166.875 99.2262 158.319 88.638L158.195 88.432ZM72.924 96.7131L77.0573 91.6455L77.1813 92.5931C77.264 93.3347 77.388 94.0763 77.5533 94.8179C80.24 108.867 89.8707 120.609 105.908 129.673C119.879 137.583 127.98 146.688 130.336 156.7C131.328 160.861 131.493 164.981 131.08 168.565L131.039 168.771L130.832 168.853C124.549 171.902 117.44 173.633 109.959 173.633C83.712 173.633 62.4253 152.456 62.4253 126.336C62.4253 115.129 66.352 104.788 72.924 96.7131Z" fill="white"/>
</g>
<defs>
<clipPath id="clip0_2405_41">
<rect width="124" height="158" fill="white" transform="translate(48 31)"/>
</clipPath>
</defs>
</svg>
