<?xml version="1.0" encoding="utf-8"?>
<!-- Generator: Adobe Illustrator 28.0.0, SVG Export Plug-In . SVG Version: 6.00 Build 0)  -->
<svg version="1.1" id="a" xmlns="http://www.w3.org/2000/svg" xmlns:xlink="http://www.w3.org/1999/xlink" x="0px" y="0px"
	 viewBox="0 0 969 201.3" style="enable-background:new 0 0 969 201.3;" xml:space="preserve">
<style type="text/css">
	.st0{fill:#75FB6E;}
</style>
<polygon class="st0" points="90.3,102.8 93.9,99.2 93.9,86.3 90.3,82.7 85.3,82.7 81.8,86.3 81.8,99.2 85.3,102.8 "/>
<polygon class="st0" points="123.1,102.6 126.6,99 126.6,86.3 123.1,82.7 118.1,82.7 114.4,86.3 114.4,99 118.1,102.6 "/>
<polygon class="st0" points="200.2,73.1 182.2,87 181.5,92 180.7,92.7 175.7,92.7 172.1,96.4 172.1,101.2 175.4,104.5 175.4,106.3 
	171.9,109.9 172.1,132.7 175.7,136.1 175.9,137.9 176,138 172.6,141.4 172.6,146.4 171.1,148 145.5,148 144,146.4 144,143.8 
	144,120.9 143.3,120.2 140.3,117.2 140.3,115.5 140.1,115.2 143.6,111.7 143.6,106.8 143.4,106.5 144,106.4 145,105.2 150,104.7 
	162.2,89.1 161.7,84.2 162.9,83 162.9,82.5 162.9,82.5 162.7,81.1 162.7,80.8 166.4,77.1 166,47.9 162.4,44.5 162.4,44.1 
	162.5,42.5 161.1,40.8 161.7,35.8 149.3,20.1 144.3,19.6 143.6,18.6 143.6,18.6 143.6,13.7 140.1,10.1 135.6,10.1 135.3,10.1 
	133.5,8.7 133.5,3.7 129.7,0 104.5,0 103.8,0 78.7,0 74.8,3.7 74.8,8.7 73.1,10.1 72.8,10.1 68.2,10.1 64.8,13.7 64.8,18.6 
	64.8,18.6 64.1,19.6 59,20.1 46.7,35.8 47.2,40.8 45.8,42.5 46,44.1 46,44.5 42.4,47.9 42,77.1 45.7,80.8 45.5,83 46.8,84.4 
	46.4,89.1 58.5,104.7 63.6,105.2 64.6,106.4 65.1,106.5 64.8,106.8 64.8,111.7 68.2,115.3 68.1,115.5 68.1,117.2 65.1,120.2 
	64.4,120.9 64.4,143.8 64.4,146.4 62.9,148 37.3,148 35.8,146.4 35.8,141.4 32.3,137.9 32.5,136.1 36.1,132.7 36.3,109.9 
	32.8,106.3 33,104.6 36.3,101.2 36.3,96.4 32.7,92.7 27.7,92.7 26.9,92 26.2,87 8.2,73.1 3.1,73.8 0,77.8 0.7,82.8 18.8,96.7 
	23.8,96 24.2,96.3 24.1,96.4 24.1,101.2 27.6,104.9 27.8,104.9 27.8,105.9 24.1,109.6 23.8,132.3 27.3,136 27.3,137.7 27.1,137.7 
	23.6,141.4 23.6,146.4 27.1,149.9 32.1,149.9 33.7,151.4 33.7,156.5 37.2,159.9 62.7,159.9 66.3,156.5 66.3,151.4 67.9,149.9 
	73.1,149.9 76.6,146.4 76.6,144.7 76.6,120.9 73.5,117.2 73.3,115.3 76.9,111.7 76.9,106.8 73.3,103.2 68.4,103.2 67.6,102.1 
	68.1,97.1 55.7,81.4 50.7,80.9 50.7,80.9 50.7,80.8 54.3,77.3 54.5,48.3 51.1,44.6 51.1,44.1 51.2,43.9 56.3,43.4 68.4,27.8 
	67.9,22.8 68.3,22.2 73.3,22.2 76.9,18.6 76.9,14.1 76.9,14.1 76.9,13.7 78.7,12.3 103.8,12.3 104.5,12.3 129.7,12.3 131.5,13.7 
	131.5,14.1 131.5,14.1 131.5,18.6 135.1,22.2 140.1,22.2 140.5,22.8 140,27.8 152.1,43.4 157.2,43.9 157.3,44.1 157.3,44.6 
	153.9,48.3 154,77.3 157.7,80.8 157.7,80.9 152.8,81.4 140.5,97.1 141,102.1 140.1,103.3 140,103.2 134.9,103.2 131.5,106.8 
	131.5,111.7 134.9,115.3 135.1,115.3 134.9,117.2 132,120.9 132,144.7 132,146.4 135.4,149.9 140.5,149.9 142.1,151.4 142.1,156.5 
	145.7,159.9 171.2,159.9 174.7,156.5 174.7,151.4 176.3,149.9 181.3,149.9 184.8,146.4 184.8,141.4 181.3,137.7 180.9,137.7 
	180.9,136 184.4,132.3 184.1,109.6 180.4,105.9 180.4,104.9 180.8,104.9 184.2,101.2 184.2,96.4 184.2,96.3 184.6,96 189.6,96.7 
	207.7,82.8 208.4,77.8 205.3,73.8 "/>
<polygon class="st0" points="88.4,148.8 84.7,152.5 84.7,157.5 83.2,159.1 78.2,159.1 53.8,182.9 53.8,187.7 52.3,189.3 26.7,189.3 
	25.2,187.7 25.2,182.7 21.5,179 16.5,179 13,182.7 13,187.7 16.5,191.2 21.5,191.2 23.1,192.8 23.1,197.8 26.6,201.3 52.1,201.3 
	55.7,197.8 55.7,192.8 57.3,191.2 57.5,191.4 62.5,191.4 86.8,167.6 86.8,162.5 88.2,161 93.1,161 97.1,157.5 97.1,152.5 
	93.4,148.8 "/>
<polygon class="st0" points="187.2,179 183.6,182.7 183.6,187.7 182,189.3 156.5,189.3 154.9,187.7 154.9,182.9 130.6,159.1 
	125.6,159.1 124,157.5 124,152.5 120.3,148.8 115.3,148.8 111.7,152.5 111.7,157.5 115.7,161 120.5,161 121.9,162.5 121.9,167.6 
	146.2,191.4 151.2,191.4 151.4,191.2 153,192.8 153,197.8 156.6,201.3 182.2,201.3 185.6,197.8 185.6,192.8 187.2,191.2 
	192.2,191.2 195.7,187.7 195.7,182.7 192.2,179 "/>
<polygon class="st0" points="328.2,58.2 326.5,56.6 326.5,51.2 322.6,47.4 295.7,47.4 292.1,51.2 292.1,56.6 290.4,58.2 285,58.2 
	281.3,62 281.3,88.9 285,92.7 290.4,92.7 292.1,94.3 292.1,99.7 295.7,103.5 322.6,103.5 324.4,105.2 324.4,132.1 322.6,133.7 
	295.7,133.7 294.2,132.1 294.2,126.8 290.4,122.9 285,122.9 281.3,126.8 281.3,132.1 285,135.8 290.4,135.8 292.1,137.5 
	292.1,142.9 295.7,146.6 322.6,146.6 326.5,142.9 326.5,137.5 328.2,135.8 333.4,135.8 337.1,132.1 337.1,105.2 333.4,101.4 
	328,101.4 326.3,99.7 326.3,94.3 322.5,90.7 295.6,90.7 294,88.9 294,62 295.6,60.4 322.5,60.4 324.2,62 324.4,67.4 328.2,71.2 
	333.6,71.2 337.2,67.4 337.2,62 333.6,58.2 "/>
<polygon class="st0" points="407,68.9 403.2,72.8 403.2,132.1 406,134.9 404.5,136.5 401.7,133.9 374.8,133.9 373,132.3 373,72.9 
	369.2,69.1 363.8,69.1 360.2,72.9 360.2,132.3 363.8,136.1 369.2,136.1 370.9,137.7 370.9,143.1 374.8,146.9 401.7,146.9 
	404.5,144.1 406,145.7 403.2,148.5 403.2,153.7 401.7,155.2 374.8,155.2 370.9,159.1 370.9,164.4 374.8,168.3 401.7,168.3 
	405.3,164.4 405.3,159.1 407,157.5 412.4,157.5 416.1,153.7 416.1,72.8 412.4,68.9 "/>
<polygon class="st0" points="486.1,79.7 484.5,78.2 484.5,72.8 480.7,68.9 443,68.9 439.2,72.8 439.2,142.9 443,146.7 448.4,146.7 
	452.2,142.9 452.2,83.5 449.4,80.8 451,79.2 453.8,82 459.1,82 461.9,79.2 463.5,80.8 460.7,83.5 460.7,110.4 464.5,114.3 
	469.9,114.3 473.7,110.4 473.7,83.5 471,80.8 472.5,79.2 475.3,82 480.7,82 482.2,83.5 482.2,142.9 486.1,146.7 491.5,146.7 
	495.3,142.9 495.3,83.5 491.5,79.7 "/>
<path class="st0" d="M565.1,79.9l-1.7-1.7v-5.4l-3.7-3.7h-27.1l-2.8,2.8l-1.6-1.7l2.8-2.8V51.2l-3.8-3.8h-5.4l-3.7,3.8v91.9l3.7,3.8
	h37.9l3.7-3.8v-5.4l1.7-1.7h5.4l3.7-3.6V83.7l-3.7-3.8L565.1,79.9L565.1,79.9z M561.4,132.3l-1.6,1.6h-27.1l-2.8,2.6l-1.6-1.6
	l2.8-2.8V83.5l-2.8-2.8l1.6-1.6l2.8,2.8h27.1l1.6,1.7V132.3L561.4,132.3z"/>
<polygon class="st0" points="628.6,57.7 632.5,53.8 632.5,47.2 628.6,43.4 621.9,43.4 618.2,47.2 618.2,53.8 621.9,57.7 "/>
<polygon class="st0" points="611.8,69.1 608,72.9 608,78.3 611.8,82.1 617,82.1 619.8,79.4 621.3,80.9 618.6,83.7 618.6,132.3 
	621.3,135.1 619.8,136.7 617,134.1 611.8,134.1 608,137.9 608,143.3 611.8,147.1 638.7,147.1 642.4,143.3 642.4,137.9 638.7,134.1 
	633.3,134.1 630.5,136.7 628.8,135.1 631.6,132.3 631.6,83.7 628.8,80.9 630.5,79.4 633.3,82.1 638.7,82.1 642.4,78.3 642.4,72.9 
	638.7,69.1 "/>
<path class="st0" d="M723.1,79.9l-1.7-1.6v-5.4l-3.8-3.8h-26.9l-3.7,3.8v5.4l-1.7,1.6h-5.4l-3.7,3.8v48.6l3.7,3.8h5.4l1.7,1.6v5.4
	l3.7,3.8h26.9l3.8-3.8v-5.4l1.7-1.6h5.4l3.7-3.8V83.7l-3.7-3.8H723.1z M719.3,132.3l-1.7,1.6h-26.9l-1.6-1.6V83.7l1.6-1.6h26.9
	l1.7,1.6V132.3z"/>
<polygon class="st0" points="802.1,79.9 800.4,78.3 800.4,72.9 796.7,69.1 769.7,69.1 766,72.9 766,78.3 764.3,79.9 758.9,79.9 
	755.2,83.7 755.2,99.8 758.9,103.7 764.3,103.7 766,105.2 766,110.6 769.7,114.4 796.7,114.4 798.3,116 798.3,132.1 796.7,133.7 
	769.7,133.7 768.1,132.1 768.1,126.8 764.3,122.9 758.9,122.9 755.2,126.8 755.2,132.1 758.9,136 764.1,136 765.8,137.5 
	765.8,142.9 769.5,146.7 796.6,146.7 800.2,142.9 800.2,137.5 802,136 807.3,136 811,132.1 811,116 807.3,112.2 802,112.2 
	800.2,110.6 800.2,105.2 796.7,101.4 769.7,101.4 768.1,99.8 768.1,83.7 769.7,82.1 796.7,82.1 798.3,83.7 798.3,89.1 802.1,92.9 
	807.5,92.9 811.2,89.1 811.2,83.7 807.5,79.9 "/>
<polygon class="st0" points="865.5,57.7 869.3,53.8 869.3,47.2 865.5,43.4 858.7,43.4 855.1,47.2 855.1,53.8 858.7,57.7 "/>
<polygon class="st0" points="848.8,69.1 845,72.9 845,78.3 848.8,82.1 854,82.1 856.8,79.4 858.4,80.9 855.6,83.7 855.6,132.3 
	858.4,135.1 856.8,136.7 854,134.1 848.8,134.1 845,137.9 845,143.3 848.8,147.1 875.8,147.1 879.4,143.3 879.4,137.9 875.8,134.1 
	870.4,134.1 867.6,136.7 865.8,135.1 868.6,132.3 868.6,83.7 865.8,80.9 867.6,79.4 870.4,82.1 875.8,82.1 879.4,78.3 879.4,72.9 
	875.8,69.1 "/>
<polygon class="st0" points="960,92.9 965.4,92.9 969,89.1 969,83.7 965.4,79.9 960,79.9 958.2,78.3 958.2,72.9 954.6,69.1 
	927.5,69.1 923.8,72.9 923.8,78.3 922.1,79.9 916.7,79.9 913.1,83.7 913.1,99.8 916.7,103.7 922.1,103.7 923.8,105.2 923.8,110.6 
	927.5,114.4 954.6,114.4 956.2,116 956.2,132.1 954.6,133.7 927.5,133.7 925.9,132.1 925.9,126.8 922.1,122.9 916.7,122.9 
	913.1,126.8 913.1,132.1 916.7,136 922.1,136 923.8,137.5 923.8,142.9 927.5,146.7 954.6,146.7 958.2,142.9 958.2,137.5 960,136 
	965.4,136 969,132.1 969,116 965.4,112.2 960,112.2 958.2,110.6 958.2,105.2 954.6,101.4 927.5,101.4 925.9,99.8 925.9,83.7 
	927.5,82.1 954.6,82.1 956.2,83.7 956.2,89.1 "/>
</svg>
