<svg width="2500" height="537" viewBox="0 0 2500 537" fill="none" xmlns="http://www.w3.org/2000/svg">
<g clip-path="url(#clip0_1096_606)">
<path fill-rule="evenodd" clip-rule="evenodd" d="M2344.9 371.6H2379.6V225.6L2472.4 371.6H2500V173.6L2499 166.5H2465.3V312.4L2377.6 175.6L2372.4 166.5H2344.9V371.6Z" fill="white"/>
<path fill-rule="evenodd" clip-rule="evenodd" d="M1132.7 196.1C1141.9 195.1 1152.1 196.1 1160.3 198.1C1169.5 200.1 1173.6 204.2 1177.6 211.4C1184.7 224.7 1186.8 246.1 1186.8 263.4C1186.8 280.7 1186.8 303.2 1181.7 318.5C1175.6 335.8 1165.4 340.9 1145 342C1127.7 343 1108.3 342 1099.1 326.7C1086.9 306.3 1087.9 242 1096 219.6C1102.1 202.3 1111.3 197.2 1132.7 195.1V196.1ZM1142.9 373.6C1155.1 373.6 1170.5 371.6 1181.7 367.5C1216.4 355.3 1221.5 310.4 1221.5 275.7C1221.5 237.9 1220.5 184.9 1180.7 170.6C1158.3 162.4 1118.5 162.4 1095 170.6C1060.3 183.9 1055.2 229.8 1055.2 264.5C1055.2 292.1 1056.2 325.7 1070.5 346.1C1076.6 355.3 1082.7 361.4 1095 365.5C1110.3 370.6 1125.6 371.6 1141.9 371.6L1142.9 373.6Z" fill="white"/>
<path fill-rule="evenodd" clip-rule="evenodd" d="M1380.6 265.4H1338.8V198.1C1348 198.1 1382.7 197.1 1389.8 199.1C1406.1 202.2 1410.2 214.4 1410.2 231.8C1410.2 254.2 1403.1 266.5 1380.6 266.5V265.4ZM1305.1 371.6H1338.8V292L1378.6 293L1414.3 371.6H1448L1409.2 287.9C1419.4 284.8 1430.6 275.7 1434.7 269.5C1442.9 257.3 1443.9 241.9 1443.9 226.6C1443.9 209.3 1439.8 193.9 1430.6 183.7C1422.4 173.5 1404.1 167.4 1389.8 167.4H1303.1V372.5L1305.1 371.6Z" fill="white"/>
<path fill-rule="evenodd" clip-rule="evenodd" d="M853.1 285.8H938.8L939.8 371.6H973.5V167.5L966.3 166.5H939.8L938.8 255.2H853.1V166.5H818.4V371.6H853.1V285.8Z" fill="white"/>
<path fill-rule="evenodd" clip-rule="evenodd" d="M1772.4 285.8H1858.2L1859.2 371.6H1892.9V167.5L1885.7 166.5H1859.2L1858.2 255.2H1772.4V166.5H1737.8L1738.8 371.6H1772.4V285.8Z" fill="white"/>
<path fill-rule="evenodd" clip-rule="evenodd" d="M2056.1 197.1L2084.7 292H2027.6L2056.1 197.1ZM2011.2 347.1L2019.4 323.6H2091.8L2108.1 370.5L2109.1 371.5H2144.8L2078.5 166.4H2035.6L1969.3 371.5H2005L2013.2 347H2011.2V347.1Z" fill="white"/>
<path fill-rule="evenodd" clip-rule="evenodd" d="M1521.4 264.4C1521.4 296 1522.4 352.2 1556.1 366.4C1577.5 375.6 1608.1 374.6 1631.6 371.5C1641.8 370.5 1648.9 368.4 1658.1 366.4V339.9C1637.7 341.9 1622.4 343 1602 343C1583.6 343 1570.4 338.9 1564.2 324.6C1556 308.3 1557.1 282.8 1557.1 264.4C1557.1 245 1557.1 210.3 1578.5 200.1C1596.9 190.9 1641.8 198.1 1659.1 200.1V174.6C1659.1 172.6 1647.9 170.5 1645.8 170.5C1620.3 165.4 1582.5 160.3 1558 172.5C1547.8 177.6 1541.7 183.7 1536.6 192.9C1526.4 211.3 1522.3 239.8 1522.3 264.3H1521.4V264.4Z" fill="white"/>
<path fill-rule="evenodd" clip-rule="evenodd" d="M593.9 197.1H652V371.6H686.7V197.1H744.9V166.5H593.9V197.1Z" fill="white"/>
<path fill-rule="evenodd" clip-rule="evenodd" d="M2220.4 370.5L2221.4 371.6H2253.1L2254.1 370.5V167.5L2253.1 166.5H2221.4L2220.4 167.5V370.5Z" fill="white"/>
<path fill-rule="evenodd" clip-rule="evenodd" d="M137.8 138.9L256.2 259.3L468.4 0.100098L137.8 138.9ZM0 537.9L375.5 379.7L257.1 259.3L1 537.9H0Z" fill="url(#paint0_linear_1096_606)"/>
</g>
<defs>
<linearGradient id="paint0_linear_1096_606" x1="-0.000184" y1="269.013" x2="468.363" y2="269.013" gradientUnits="userSpaceOnUse">
<stop stop-color="#00CCFF"/>
<stop offset="1" stop-color="#33FF99"/>
</linearGradient>
<clipPath id="clip0_1096_606">
<rect width="2500" height="537" fill="white"/>
</clipPath>
</defs>
</svg>
