<svg xmlns="http://www.w3.org/2000/svg" fill="none" viewBox="0 0 96 96" id="Tor--Streamline-Svg-Logos">
  <desc>
    Tor Streamline Icon: https://streamlinehq.com
  </desc>
  <path fill="#68b044" d="m53.9913 23.8449 -1.498 5.992c2.1222 -4.2443 5.5551 -7.4276 9.4874 -10.2363 -2.8712 3.3081 -5.4927 6.6162 -7.0531 9.9867 2.6839 -3.8075 6.3041 -5.8672 10.3611 -7.3028 -5.4302 4.8061 -9.737 10.0491 -12.9826 15.2297l-2.6215 -1.1235c0.4369 -4.1819 1.9973 -8.4263 4.3067 -12.5458Z" stroke-width="1"></path>
  <path fill="#f5f8de" d="m47.0633 35.2666 4.9309 2.0598c0 1.2483 -0.1248 5.1181 0.6866 6.2416 8.239 10.6108 6.8658 31.9573 -1.6853 32.4567 -12.9826 0 -17.976 -8.8008 -17.976 -16.9149 0 -7.4276 8.8632 -12.2961 14.1686 -16.6653 1.4356 -1.1859 1.1859 -3.8074 -0.1248 -7.1779Z" stroke-width="1"></path>
  <path fill="#7e4798" d="m51.9946 37.2656 1.8101 0.9363c-0.1872 1.1859 0.0624 3.8074 1.2483 4.4316 5.243 3.2456 10.1115 6.741 12.0465 10.2987 6.8658 12.4209 -4.8061 23.968 -14.98 22.8445 5.4926 -4.0571 7.1155 -12.4209 5.0557 -21.5962 -0.8114 -3.5577 -2.1222 -6.8034 -4.4316 -10.486 -0.9986 -1.6852 -0.6241 -3.9322 -0.749 -6.4289Z" stroke-width="1"></path>
  <path fill="#010101" d="m46.6892 34.0811 8.1766 3.3705c-1.1235 3.6201 2.1222 6.1792 3.1832 6.741 2.3719 1.3107 4.6189 2.6839 6.429 4.3067 3.4329 3.1208 5.3678 7.49 5.3678 12.0464s-2.0598 8.988 -5.6175 11.9216c-3.3081 2.7463 -7.9269 3.9323 -12.3585 3.9323 -2.7463 0 -5.243 -0.1249 -7.9269 -0.9987 -6.1793 -2.0598 -10.7357 -7.3028 -11.1102 -13.6068 -0.3745 -4.8685 0.749 -8.6135 4.5564 -12.5458 1.9349 -2.0597 5.9296 -4.4316 8.6759 -6.3041 1.3732 -0.8738 2.8088 -3.4953 0.0625 -8.4262l0.5617 -0.4369Zm0.6242 1.3107c0.3121 0.4369 1.0611 2.3094 1.2483 2.8712 0.3745 1.5604 0.1873 3.0584 -0.1248 3.745 -1.6853 3.1208 -4.6813 3.9946 -6.8034 5.7423 -0.4189 0.3433 -0.8415 0.6783 -1.2613 1.014l-0.2288 0.1833c-3.3114 2.6598 -6.3801 5.4694 -5.9999 12.9089 0.2496 4.1819 3.4953 9.3625 8.4262 11.7343 0.9389 0.459 1.9197 0.8204 2.9307 1.1051 -1.2066 -0.5313 -2.2347 -1.1916 -3.0555 -2.1036 0 -0.0624 -0.3121 -0.3121 -0.3121 -0.3121 -1.7477 -1.9973 -3.9323 -5.3678 -4.6813 -8.5511 -0.312 -1.2483 -0.5617 -2.247 -0.1872 -3.5577 1.3064 -4.6576 4.0083 -6.7824 6.8358 -8.7264l0.1866 -0.1279c0.0312 -0.0213 0.0623 -0.0426 0.0935 -0.0638l0.2805 -0.1911c0.0936 -0.0636 0.1872 -0.1273 0.2808 -0.1909 0.6866 -0.4369 1.5605 -0.8739 2.247 -1.4356 1.1334 -0.7392 1.7999 -2.7232 2.3682 -4.6929l0.0565 -0.1968c0.1311 -0.4591 0.2576 -0.9151 0.3841 -1.352 -0.3745 1.9349 -0.8114 5.4303 -2.4967 6.741 -0.6866 0.4994 -1.4356 0.9987 -2.1846 1.498l-0.275 0.1852c-2.9617 1.9934 -5.8206 3.9574 -7.1525 8.7404 -0.3121 1.0611 -0.0625 2.1846 0.1872 3.2457 0.749 3.0584 2.8712 6.3041 4.5564 8.239 0 0.0257 0.0529 0.0831 0.1152 0.1462l0.0546 0.0548c0.0732 0.0733 0.1423 0.1441 0.1423 0.1735 1.2071 1.4265 1.6907 1.9849 5.3515 2.9047 -0.8968 -0.3655 -1.7558 -0.7997 -2.3555 -1.2195 -2.996 -2.0597 -4.494 -4.6188 -4.7437 -8.4262 -0.1872 -2.996 1.6229 -6.0544 5.1806 -7.9269 2.4343 -1.3108 3.1833 -3.2457 3.9323 -5.6175 -0.5618 2.7463 -1.1859 4.3691 -3.6826 5.8671 -2.996 1.6853 -5.1182 5.1182 -4.9309 7.4276 0.2496 2.8088 2.1846 6.0544 4.4316 7.9893 0.9062 0.8056 2.3405 1.3675 3.7457 1.7185 -0.3676 -0.29 -0.7707 -0.7049 -1.1242 -1.2191 -0.437 -0.6242 -0.749 -1.498 -1.0611 -2.3094 -0.3121 -0.749 -0.6242 -1.6229 -0.6242 -2.3719 0 -1.8101 0.1873 -4.0571 1.498 -5.5551 1.1859 -1.3731 1.5604 -1.5604 2.0598 -3.1832 -0.3745 1.8101 -0.6242 1.9349 -1.7477 3.5577 -1.4356 1.9974 -1.498 3.9947 -1.3108 5.243 0.1249 0.8115 0.437 1.5605 0.6866 2.1846 0.3121 0.8114 0.6866 1.5604 1.1859 2.247 0.437 0.4994 0.6866 0.8114 1.3108 1.1235 0.6866 -1.3107 1.1235 -3.9322 1.1859 -5.3678 0.0624 -1.2483 0.1248 -2.6839 -0.0624 -4.1195 -0.2497 -1.9349 -0.8114 -3.8074 -0.8738 -5.3054 0.312 1.3731 0.9986 3.3081 1.3731 5.1806 0.3121 1.498 0.3745 2.9335 0.2497 4.057 -0.1248 1.3108 -0.1873 2.3719 -0.3745 3.4954 -0.1718 0.8587 -0.6061 1.6649 -1.3029 2.515 1.5796 -1.0071 2.4951 -2.7946 2.9257 -4.8244 0.5618 -2.4967 0.6242 -4.8685 0.6242 -6.1169 0 -0.8883 -0.3122 -2.2059 -0.6589 -3.5208l-0.0614 -0.2319c-0.0721 -0.2704 -0.1448 -0.5395 -0.216 -0.8037 -0.312 -1.2483 -1.498 -2.4967 -1.81 -3.4329 -0.5618 -1.5604 -0.3121 -2.6839 -0.3745 -4.8685 0.2496 1.9973 0.2496 3.745 0.8114 4.6812 0.4369 0.8115 1.1859 1.935 1.6228 3.0585 0.8738 2.0597 1.3108 4.3067 1.3732 5.3678 0.0624 1.8101 -0.1873 4.6188 -0.8114 6.8658 -0.2322 0.7544 -0.5302 1.4548 -0.8645 2.0679 0.7078 -1.0911 1.2487 -2.3725 1.4886 -3.5035 0.0406 -0.1903 0.0807 -0.3813 0.1202 -0.5727l0.0588 -0.2873c0.7197 -3.5465 1.2192 -7.1823 0.7573 -9.3763 -0.1249 -0.5617 -0.3121 -2.4342 -1.0611 -4.4316 -1.0611 -2.9336 -2.6215 -5.3054 -2.8088 -5.8671 -0.5958 -1.5491 -0.7366 -5.3162 -0.8024 -7.5554l-0.0014 -0.0519c0.0189 0.5514 0.0562 1.1537 0.1072 1.7678l0.0166 0.1942c0.0114 0.1297 0.0233 0.2598 0.0358 0.3898l0.0191 0.195c0.0033 0.0325 0.0066 0.0649 0.0099 0.0974l0.0203 0.1943c0.1999 1.876 0.5037 3.6501 0.7822 4.207 0.1872 0.5618 1.8725 3.2457 3.0584 6.0544 0.8114 1.8101 1.0611 3.5578 1.1235 4.0571 0.6242 5.243 0.1248 7.4276 -1.2483 12.1088 -0.1659 0.5743 -0.3918 1.1225 -0.6543 1.6317 0.7896 -1.0129 1.371 -2.0993 1.5905 -3.0048 1.3108 -5.8048 1.8101 -13.2948 -0.0624 -19.0371 -0.9987 -2.996 -3.3705 -5.6175 -3.8074 -7.4276 -0.3745 -1.6852 -0.3745 -3.4329 -0.2497 -5.6799l0.6242 0.3121c-0.3121 0.6866 -0.1248 4.1819 0.3745 5.4926 0.6242 1.7477 2.4342 3.745 3.5577 6.5538 0.284 0.6554 0.568 1.6319 0.8199 2.6459l0.0429 0.1741c0.0212 0.0872 0.0423 0.1745 0.063 0.2619l0.0411 0.1746c0.394 1.6863 0.6822 3.3197 0.7184 3.6093 0.6242 5.243 0.3121 10.1739 -1.2483 14.3559 -0.7376 1.9361 -2.2923 3.702 -3.432 4.5182 3.0329 -0.4094 7.2129 -1.9593 9.736 -4.0191 3.2457 -2.6839 4.9934 -6.8034 4.9934 -10.9853 0 -4.1819 -1.6229 -8.1766 -4.8061 -10.9853 -1.8101 -1.6228 -4.7437 -3.6202 -6.6162 -4.6813 -1.8725 -1.061 -4.1819 -3.9946 -3.4329 -6.8034l-6.1168 -2.6839Z" stroke-width="1"></path>
  <path fill="#7e4798" d="M3.37183 25.0928H37.1392c1.2484 0 2.3719 1.0611 2.3719 2.3718v9.9867c0 1.3107 -1.1235 2.3718 -2.3719 2.3718H30.211c-1.5604 0 -2.247 0.8738 -2.247 1.8725v32.6439c0 1.1235 -0.8738 1.9349 -1.9349 1.9349H14.5444c-1.0611 0 -1.8725 -0.8114 -1.8725 -1.9349v-32.956c0 -0.9986 -0.9362 -1.6228 -1.6228 -1.6228H3.37183C2.06108 39.7607 1 38.6996 1 37.3889v-9.9867c0 -1.2483 1.06108 -2.3094 2.37183 -2.3094Z" stroke-width="1"></path>
  <path fill="#7e4798" d="M90.0064 38.3252h2.996c1.1235 0 1.9974 0.8738 1.9974 1.9349v10.6733c0 1.3731 0.0624 1.9349 -1.6229 1.9349 -3.3081 0 -4.8061 1.7476 -4.8061 3.6826v18.0384c0 0.8114 -0.8114 1.5604 -1.7476 1.5604H76.0875c-0.9362 0 -1.7477 -0.6866 -1.7477 -1.5604V54.0542c0 -0.3745 0 -0.8738 0.0625 -1.1859 0.5617 -7.6149 6.5537 -13.6693 14.1061 -14.4807 0.1873 0 1.0611 -0.0624 1.498 -0.0624Z" stroke-width="1"></path>
</svg>