<svg width="363" height="48" viewBox="0 0 363 48" fill="none" xmlns="http://www.w3.org/2000/svg">
<path d="M3.26641 0.185565C3.66967 0.061855 10.4243 0 23.5302 0H36.0515C40.9713 0 43.6126 0.0824742 43.9755 0.247423C45.0644 0.618557 45.891 1.36082 46.4556 2.47422C46.8185 3.21649 47 4 47 4.82474C47 6.96907 46.1128 8.49484 44.3385 9.40206L43.6126 9.77319L37.6847 9.83505C33.6924 9.87629 31.4543 10 30.9704 10.2062C29.8816 10.6598 29.0751 11.4433 28.5508 12.5567C28.1879 13.3402 28.0064 15.7526 28.0064 19.7938C28.0064 23.2165 28.0266 26.268 28.0669 28.9485V36C28.0669 40.9897 28.0468 43.6082 28.0064 43.8557C27.7645 45.0515 27.2402 46.0412 26.4337 46.8247C25.6272 47.6082 24.5989 48 23.3488 48C21.3325 48 19.8807 47.0515 18.9936 45.1546L18.6911 44.5361C18.6508 41.1134 18.6306 35.9588 18.6306 29.0722C18.6306 22.1856 18.6105 17.0103 18.5701 13.5464L18.2072 12.7423C17.683 11.6289 16.8764 10.8041 15.7876 10.268L15.0013 9.8969C13.7109 9.85567 11.7752 9.83505 9.19434 9.83505C6.61347 9.83505 4.67782 9.81443 3.38739 9.77319L2.66152 9.40206C0.887173 8.45361 0 6.94845 0 4.8866C0 4.14433 0.100815 3.52577 0.302446 3.03093C0.826684 1.62886 1.81467 0.680411 3.26641 0.185565Z" fill="white"/>
<path d="M76.0492 43.635V40.7256C85.265 40.699 92.7269 33.2217 92.7269 23.9993C92.7269 14.7776 85.265 7.30034 76.0492 7.27374V4.36436C86.8716 4.39164 95.6356 13.1709 95.6356 23.9993C95.6356 34.8284 86.8716 43.6084 76.0492 43.635ZM76.0492 33.4519C81.2472 33.4246 85.4546 29.2046 85.4546 23.9993C85.4546 18.7947 81.2472 14.5747 76.0492 14.5474V11.6387C82.8546 11.6654 88.3639 17.188 88.3639 23.9993C88.3639 30.8114 82.8546 36.334 76.0492 36.3606V33.4519ZM76.0492 18.9111C78.8375 18.9377 81.0909 21.2044 81.0909 23.9993C81.0909 26.7949 78.8375 29.0616 76.0492 29.0882V18.9111ZM52 23.9993C52 37.2547 62.7446 48 76 48C89.2547 48 100 37.2547 100 23.9993C100 10.7446 89.2547 0 76 0C62.7446 0 52 10.7446 52 23.9993Z" fill="white"/>
<path d="M140.32 10.3033L139.701 9.99486L129.062 9.93316H124.608C121.268 9.93316 119.247 9.97429 118.546 10.0566C117.845 10.0977 117.268 10.2622 116.814 10.5501C116.031 11.0026 115.412 11.7018 114.959 12.6478C114.711 13.0591 114.588 13.7584 114.588 14.7455C114.588 16.6787 115.454 18.0566 117.186 18.8792L117.866 19.2494L128.629 19.3111C135.763 19.3111 139.577 19.2288 140.072 19.0643C141.227 18.653 142.093 17.8509 142.67 16.6581C142.918 16.1234 143.041 15.4447 143.041 14.6221C143.041 13.7584 142.897 13.0591 142.608 12.5244C142.113 11.5784 141.351 10.838 140.32 10.3033ZM108.773 0.123396C109.186 0.0411319 116.031 0 129.309 0L149.289 0.0616998L149.969 0.308483C150.918 0.678663 151.66 1.27507 152.196 2.09769C152.567 2.67352 152.794 3.31106 152.876 4.01028C152.959 4.70951 153 6.93059 153 10.6735V14.4987C153 21.5321 152.897 25.3573 152.691 25.9743C151.99 27.7429 150.464 28.7506 148.113 28.9974C146.546 29.1208 145.371 29.5938 144.588 30.4165C143.68 31.3625 143.227 32.473 143.227 33.7481C143.227 35.0231 143.68 36.1131 144.588 37.018C145.454 37.8817 146.567 38.3548 147.928 38.437C149.371 38.6015 150.402 38.91 151.021 39.3625C152.34 40.2674 153 41.5424 153 43.1877C153 45.1208 152.134 46.5604 150.402 47.5064C149.948 47.7532 149.186 47.8766 148.113 47.8766C147.124 47.8766 146.402 47.7738 145.948 47.5681C144.34 46.7455 143.412 45.2853 143.165 43.1877C142.835 40.3085 141.247 38.7455 138.402 38.4987C135.474 38.2519 133.887 36.6684 133.639 33.7481C133.557 33.1311 133.433 32.5553 133.268 32.0206C132.814 30.8278 132.031 29.964 130.918 29.4293L130.113 29.0591H117.99L117.247 29.4293C116.052 30.0051 115.247 30.8689 114.835 32.0206C114.67 32.5141 114.588 34.509 114.588 38.0051C114.588 41.3779 114.546 43.3522 114.464 43.928C114.216 45.5321 113.351 46.7249 111.866 47.5064C111.124 47.8355 110.423 48 109.763 48C108.732 48 107.804 47.6915 106.979 47.0746C106.196 46.4987 105.639 45.7995 105.309 44.9769L105 44.1748V23.8766L105.062 3.51671L105.433 2.77635C106.093 1.33676 107.206 0.452443 108.773 0.123396Z" fill="white"/>
<path d="M161.331 0.18533C161.695 0.0617771 168.498 0 181.742 0L201.548 0.0617792L202.456 0.49421C204.152 1.35908 205 2.75933 205 4.69498V5.12741C204.879 7.10425 204.051 8.50451 202.517 9.32819L201.79 9.76062C198.358 9.8018 193.23 9.8224 186.406 9.8224C179.582 9.8224 174.474 9.84299 171.082 9.88417L170.295 10.1931C169.488 10.5225 168.781 11.0991 168.175 11.9228C167.61 12.7053 167.327 13.5907 167.327 14.5792C167.327 15.1557 167.489 15.8147 167.812 16.556C168.296 17.5856 169.043 18.3681 170.053 18.9035L170.78 19.2741C174.212 19.3153 179.34 19.3359 186.164 19.3359C192.988 19.3359 198.116 19.3565 201.548 19.3977L202.274 19.7683C203.324 20.3037 204.091 21.045 204.576 21.9923L205 22.7954V33.4826C205 40.6487 204.919 44.4788 204.758 44.973C204.394 46.0849 203.627 46.9292 202.456 47.5058L201.548 47.9382L181.803 48C168.599 48 161.796 47.9382 161.392 47.8147C159.494 47.2793 158.384 46.0232 158.061 44.0463C158.02 43.8816 158 43.6139 158 43.2432C158 41.2252 158.909 39.7838 160.726 38.9189L161.573 38.5483C164.925 38.5071 169.972 38.4865 176.715 38.4865C183.458 38.4865 188.526 38.4659 191.918 38.4247L192.644 38.0541C194.461 37.2304 195.37 35.7889 195.37 33.7297C195.37 31.4646 194.259 29.9202 192.039 29.0965C191.877 29.0142 186.689 28.9524 176.473 28.9112L161.271 28.8494L160.726 28.5405C159.676 27.964 158.929 27.2021 158.485 26.2548L158 25.2046V3.83012L158.303 3.02703C158.868 1.58559 159.878 0.638354 161.331 0.18533Z" fill="white"/>
<path d="M210.423 2.71465C211.432 0.904884 212.762 0 214.416 0C214.859 0 215.283 0.061696 215.686 0.185088C217.339 0.596401 218.448 1.56298 219.013 3.08483L219.315 3.82519C219.315 7.2802 219.335 12.4422 219.376 19.3111C219.416 26.1799 219.436 31.3213 219.436 34.7352L219.799 35.5373C220.283 36.4833 221.049 37.2236 222.098 37.7584C222.501 37.964 223.126 38.0668 223.973 38.0668C225.949 38.0668 227.32 37.2031 228.086 35.4756L228.51 34.6118C228.51 31.1568 228.53 25.9949 228.57 19.126C228.61 12.2571 228.631 7.11568 228.631 3.7018L228.994 2.89974C229.881 1.00771 231.332 0.0616963 233.349 0.0616963C235.284 0.0616963 236.676 0.966581 237.523 2.77635L237.885 3.51671L237.946 19.0643C237.986 29.4293 238.087 34.7763 238.248 35.1054C239.176 37.1208 240.668 38.1285 242.725 38.1285C244.58 38.1285 245.931 37.2442 246.777 35.4756L247.201 34.6118L247.322 19.126L247.382 3.7018L247.745 2.83805C248.592 0.946015 250.064 0 252.161 0C253.129 0 254.036 0.267352 254.883 0.802057C255.73 1.29563 256.335 2.03599 256.698 3.02313L257 3.82519V44.2982L256.577 45.162C256.133 46.2314 255.367 47.0334 254.278 47.5681L253.552 47.8766C249.116 47.9177 242.462 47.9383 233.591 47.9383C224.759 47.9383 218.126 47.9589 213.69 48L212.964 47.6915C212.44 47.4859 211.915 47.1157 211.391 46.581C210.867 46.0463 210.504 45.5116 210.302 44.9769L210 44.1748V23.8149L210.06 3.39332L210.423 2.71465Z" fill="white"/>
<path d="M297.754 10.3033L297.015 9.93316H286.431C279.251 9.93316 275.518 9.97429 275.231 10.0566C273.015 10.7558 271.908 12.2776 271.908 14.6221C271.908 16.6787 272.81 18.1388 274.615 19.0026L275.415 19.3727H296.831L297.631 19.0026C299.518 18.0977 300.462 16.6375 300.462 14.6221C300.462 13.8406 300.297 13.1414 299.969 12.5244C299.436 11.4961 298.697 10.7558 297.754 10.3033ZM265.2 0.185091C265.487 0.0616971 267.867 0 272.338 0H286.185H306.492L307.292 0.370182C308.318 0.822624 309.097 1.60411 309.631 2.71465L310 3.51671V44.4833L309.569 45.4087C308.79 47.0129 307.436 47.8766 305.508 48H304.954C304.462 48 303.99 47.9177 303.538 47.7532C302.964 47.5476 302.41 47.1774 301.877 46.6427C301.385 46.1491 301.036 45.6144 300.831 45.0386C300.585 44.3805 300.441 42.1388 300.4 38.3136L300.338 32.3907L300.031 31.7121C299.333 30.3136 298.164 29.4499 296.523 29.1208C296.195 29.0386 292.564 28.9974 285.631 28.9974L275.538 29.0591L274.8 29.3676C273.487 30.0257 272.585 30.9717 272.092 32.2057C271.969 32.5347 271.887 34.653 271.846 38.5604L271.785 44.4833L271.354 45.4087C270.862 46.437 270.103 47.1979 269.077 47.6915C268.626 47.8972 267.908 48 266.923 48C265.897 48 265.159 47.8972 264.708 47.6915C263.682 47.1979 262.923 46.437 262.431 45.4087L262 44.4833V3.51671L262.308 2.83805C262.923 1.48072 263.887 0.596402 265.2 0.185091Z" fill="white"/>
<path d="M350.381 10.365L349.639 9.99486L339 9.93316H328.361L327.557 10.2416C325.577 11.1054 324.588 12.5656 324.588 14.6221C324.588 16.5553 325.433 17.9743 327.124 18.8792L327.804 19.2494L338.629 19.3111H349.454L350.32 18.9409C352.093 18.036 352.979 16.617 352.979 14.6838C352.979 13.6967 352.897 13.0386 352.732 12.7095C352.196 11.6401 351.412 10.8586 350.381 10.365ZM318.65 0.123391C319.021 0.0411303 325.887 0 339.247 0H359.227L359.969 0.308483C361.041 0.760924 361.887 1.58355 362.505 2.77635L363 3.6401V25.2956L362.567 26.1594C362.32 26.6941 361.928 27.2082 361.392 27.7018C361.309 27.7841 361.227 27.8869 361.144 28.0103C360.691 28.4627 359.969 28.7301 358.979 28.8123C357.866 28.8946 354.093 28.9563 347.66 28.9974H347.598H347.536H347.474H347.412H347.351H347.289H347.227H347.165H347.103H347.041H346.979H346.918H346.856H346.794H346.732H346.67H346.608H346.546H346.485H346.423H346.361H346.299H346.237H346.175H346.113H346.052H345.99H345.928H345.866H345.804H345.742H345.68H345.619H345.557H345.495H345.433H345.371H345.309H345.247H345.186H345.124H345.062H345H344.938H344.876H344.814H344.753H344.691H344.629H344.567H344.505H344.443H344.381H344.32H344.258H344.196H344.134H344.072H344.01H343.948H343.887H343.825H343.701L328.052 29.0591L327.186 29.491C326.155 29.9846 325.392 30.7455 324.897 31.7738C324.691 32.1851 324.567 34.3856 324.526 38.3753L324.464 44.3599L323.969 45.2853C323.639 46.0668 323.082 46.7044 322.299 47.1979C321.557 47.7326 320.711 48 319.763 48C319.062 48 318.464 47.8972 317.969 47.6915C316.814 47.2802 315.948 46.4781 315.371 45.2853L315 44.545V3.51671L315.309 2.89974C315.639 2.24165 316.113 1.66581 316.732 1.17224C317.351 0.637531 317.99 0.287916 318.65 0.123391Z" fill="white"/>
</svg>
