<svg width="369" height="48" viewBox="0 0 369 48" fill="none" xmlns="http://www.w3.org/2000/svg">
<path d="M12.2664 0.185565C12.6697 0.061855 19.4243 0 32.5302 0H45.0515C49.9713 0 52.6126 0.0824742 52.9755 0.247423C54.0644 0.618557 54.891 1.36082 55.4556 2.47422C55.8185 3.21649 56 4 56 4.82474C56 6.96907 55.1128 8.49484 53.3385 9.40206L52.6126 9.77319L46.6847 9.83505C42.6924 9.87629 40.4543 10 39.9704 10.2062C38.8816 10.6598 38.0751 11.4433 37.5508 12.5567C37.1879 13.3402 37.0064 15.7526 37.0064 19.7938C37.0064 23.2165 37.0266 26.268 37.0669 28.9485V36C37.0669 40.9897 37.0468 43.6082 37.0064 43.8557C36.7645 45.0515 36.2402 46.0412 35.4337 46.8247C34.6272 47.6082 33.5989 48 32.3488 48C30.3325 48 28.8807 47.0515 27.9936 45.1546L27.6911 44.5361C27.6508 41.1134 27.6306 35.9588 27.6306 29.0722C27.6306 22.1856 27.6105 17.0103 27.5701 13.5464L27.2072 12.7423C26.683 11.6289 25.8764 10.8041 24.7876 10.268L24.0013 9.8969C22.7109 9.85567 20.7752 9.83505 18.1943 9.83505C15.6135 9.83505 13.6778 9.81443 12.3874 9.77319L11.6615 9.40206C9.88717 8.45361 9 6.94845 9 4.8866C9 4.14433 9.10082 3.52577 9.30245 3.03093C9.82668 1.62886 10.8147 0.680411 12.2664 0.185565Z" fill="#00FF00"/>
<path d="M80.0492 43.635V40.7256C89.265 40.699 96.7269 33.2217 96.7269 23.9993C96.7269 14.7776 89.265 7.30034 80.0492 7.27374V4.36436C90.8716 4.39164 99.6356 13.1709 99.6356 23.9993C99.6356 34.8284 90.8716 43.6084 80.0492 43.635ZM80.0492 33.4519C85.2472 33.4246 89.4546 29.2046 89.4546 23.9993C89.4546 18.7947 85.2472 14.5747 80.0492 14.5474V11.6387C86.8546 11.6654 92.3639 17.188 92.3639 23.9993C92.3639 30.8114 86.8546 36.334 80.0492 36.3606V33.4519ZM80.0492 18.9111C82.8375 18.9377 85.0909 21.2044 85.0909 23.9993C85.0909 26.7949 82.8375 29.0616 80.0492 29.0882V18.9111ZM56 23.9993C56 37.2547 66.7446 48 80 48C93.2547 48 104 37.2547 104 23.9993C104 10.7446 93.2547 0 80 0C66.7446 0 56 10.7446 56 23.9993Z" fill="#00FF00"/>
<path d="M146.32 10.3033L145.701 9.99486L135.062 9.93316H130.608C127.268 9.93316 125.247 9.97429 124.546 10.0566C123.845 10.0977 123.268 10.2622 122.814 10.5501C122.031 11.0026 121.412 11.7018 120.959 12.6478C120.711 13.0591 120.588 13.7584 120.588 14.7455C120.588 16.6787 121.454 18.0566 123.186 18.8792L123.866 19.2494L134.629 19.3111C141.763 19.3111 145.577 19.2288 146.072 19.0643C147.227 18.653 148.093 17.8509 148.67 16.6581C148.918 16.1234 149.041 15.4447 149.041 14.6221C149.041 13.7584 148.897 13.0591 148.608 12.5244C148.113 11.5784 147.351 10.838 146.32 10.3033ZM114.773 0.123396C115.186 0.0411319 122.031 0 135.309 0L155.289 0.0616998L155.969 0.308483C156.918 0.678663 157.66 1.27507 158.196 2.09769C158.567 2.67352 158.794 3.31106 158.876 4.01028C158.959 4.70951 159 6.93059 159 10.6735V14.4987C159 21.5321 158.897 25.3573 158.691 25.9743C157.99 27.7429 156.464 28.7506 154.113 28.9974C152.546 29.1208 151.371 29.5938 150.588 30.4165C149.68 31.3625 149.227 32.473 149.227 33.7481C149.227 35.0231 149.68 36.1131 150.588 37.018C151.454 37.8817 152.567 38.3548 153.928 38.437C155.371 38.6015 156.402 38.91 157.021 39.3625C158.34 40.2674 159 41.5424 159 43.1877C159 45.1208 158.134 46.5604 156.402 47.5064C155.948 47.7532 155.186 47.8766 154.113 47.8766C153.124 47.8766 152.402 47.7738 151.948 47.5681C150.34 46.7455 149.412 45.2853 149.165 43.1877C148.835 40.3085 147.247 38.7455 144.402 38.4987C141.474 38.2519 139.887 36.6684 139.639 33.7481C139.557 33.1311 139.433 32.5553 139.268 32.0206C138.814 30.8278 138.031 29.964 136.918 29.4293L136.113 29.0591H123.99L123.247 29.4293C122.052 30.0051 121.247 30.8689 120.835 32.0206C120.67 32.5141 120.588 34.509 120.588 38.0051C120.588 41.3779 120.546 43.3522 120.464 43.928C120.216 45.5321 119.351 46.7249 117.866 47.5064C117.124 47.8355 116.423 48 115.763 48C114.732 48 113.804 47.6915 112.979 47.0746C112.196 46.4987 111.639 45.7995 111.309 44.9769L111 44.1748V23.8766L111.062 3.51671L111.433 2.77635C112.093 1.33676 113.206 0.452443 114.773 0.123396Z" fill="#00FF00"/>
<path d="M167.331 0.18533C167.695 0.0617771 174.498 0 187.742 0L207.548 0.0617792L208.456 0.49421C210.152 1.35908 211 2.75933 211 4.69498V5.12741C210.879 7.10425 210.051 8.50451 208.517 9.32819L207.79 9.76062C204.358 9.8018 199.23 9.8224 192.406 9.8224C185.582 9.8224 180.474 9.84299 177.082 9.88417L176.295 10.1931C175.488 10.5225 174.781 11.0991 174.175 11.9228C173.61 12.7053 173.327 13.5907 173.327 14.5792C173.327 15.1557 173.489 15.8147 173.812 16.556C174.296 17.5856 175.043 18.3681 176.053 18.9035L176.78 19.2741C180.212 19.3153 185.34 19.3359 192.164 19.3359C198.988 19.3359 204.116 19.3565 207.548 19.3977L208.274 19.7683C209.324 20.3037 210.091 21.045 210.576 21.9923L211 22.7954V33.4826C211 40.6487 210.919 44.4788 210.758 44.973C210.394 46.0849 209.627 46.9292 208.456 47.5058L207.548 47.9382L187.803 48C174.599 48 167.796 47.9382 167.392 47.8147C165.494 47.2793 164.384 46.0232 164.061 44.0463C164.02 43.8816 164 43.6139 164 43.2432C164 41.2252 164.909 39.7838 166.726 38.9189L167.573 38.5483C170.925 38.5071 175.972 38.4865 182.715 38.4865C189.458 38.4865 194.526 38.4659 197.918 38.4247L198.644 38.0541C200.461 37.2304 201.37 35.7889 201.37 33.7297C201.37 31.4646 200.259 29.9202 198.039 29.0965C197.877 29.0142 192.689 28.9524 182.473 28.9112L167.271 28.8494L166.726 28.5405C165.676 27.964 164.929 27.2021 164.485 26.2548L164 25.2046V3.83012L164.303 3.02703C164.868 1.58559 165.878 0.638354 167.331 0.18533Z" fill="#00FF00"/>
<path d="M216.423 2.71465C217.432 0.904884 218.762 0 220.416 0C220.859 0 221.283 0.061696 221.686 0.185088C223.339 0.596401 224.448 1.56298 225.013 3.08483L225.315 3.82519C225.315 7.2802 225.335 12.4422 225.376 19.3111C225.416 26.1799 225.436 31.3213 225.436 34.7352L225.799 35.5373C226.283 36.4833 227.049 37.2236 228.098 37.7584C228.501 37.964 229.126 38.0668 229.973 38.0668C231.949 38.0668 233.32 37.2031 234.086 35.4756L234.51 34.6118C234.51 31.1568 234.53 25.9949 234.57 19.126C234.61 12.2571 234.631 7.11568 234.631 3.7018L234.994 2.89974C235.881 1.00771 237.332 0.0616963 239.349 0.0616963C241.284 0.0616963 242.676 0.966581 243.523 2.77635L243.885 3.51671L243.946 19.0643C243.986 29.4293 244.087 34.7763 244.248 35.1054C245.176 37.1208 246.668 38.1285 248.725 38.1285C250.58 38.1285 251.931 37.2442 252.777 35.4756L253.201 34.6118L253.322 19.126L253.382 3.7018L253.745 2.83805C254.592 0.946015 256.064 0 258.161 0C259.129 0 260.036 0.267352 260.883 0.802057C261.73 1.29563 262.335 2.03599 262.698 3.02313L263 3.82519V44.2982L262.577 45.162C262.133 46.2314 261.367 47.0334 260.278 47.5681L259.552 47.8766C255.116 47.9177 248.462 47.9383 239.591 47.9383C230.759 47.9383 224.126 47.9589 219.69 48L218.964 47.6915C218.44 47.4859 217.915 47.1157 217.391 46.581C216.867 46.0463 216.504 45.5116 216.302 44.9769L216 44.1748V23.8149L216.06 3.39332L216.423 2.71465Z" fill="#00FF00"/>
<path d="M303.754 10.3033L303.015 9.93316H292.431C285.251 9.93316 281.518 9.97429 281.231 10.0566C279.015 10.7558 277.908 12.2776 277.908 14.6221C277.908 16.6787 278.81 18.1388 280.615 19.0026L281.415 19.3727H302.831L303.631 19.0026C305.518 18.0977 306.462 16.6375 306.462 14.6221C306.462 13.8406 306.297 13.1414 305.969 12.5244C305.436 11.4961 304.697 10.7558 303.754 10.3033ZM271.2 0.185091C271.487 0.0616971 273.867 0 278.338 0H292.185H312.492L313.292 0.370182C314.318 0.822624 315.097 1.60411 315.631 2.71465L316 3.51671V44.4833L315.569 45.4087C314.79 47.0129 313.436 47.8766 311.508 48H310.954C310.462 48 309.99 47.9177 309.538 47.7532C308.964 47.5476 308.41 47.1774 307.877 46.6427C307.385 46.1491 307.036 45.6144 306.831 45.0386C306.585 44.3805 306.441 42.1388 306.4 38.3136L306.338 32.3907L306.031 31.7121C305.333 30.3136 304.164 29.4499 302.523 29.1208C302.195 29.0386 298.564 28.9974 291.631 28.9974L281.538 29.0591L280.8 29.3676C279.487 30.0257 278.585 30.9717 278.092 32.2057C277.969 32.5347 277.887 34.653 277.846 38.5604L277.785 44.4833L277.354 45.4087C276.862 46.437 276.103 47.1979 275.077 47.6915C274.626 47.8972 273.908 48 272.923 48C271.897 48 271.159 47.8972 270.708 47.6915C269.682 47.1979 268.923 46.437 268.431 45.4087L268 44.4833V3.51671L268.308 2.83805C268.923 1.48072 269.887 0.596402 271.2 0.185091Z" fill="#00FF00"/>
<path d="M356.381 10.365L355.639 9.99486L345 9.93316H334.361L333.557 10.2416C331.577 11.1054 330.588 12.5656 330.588 14.6221C330.588 16.5553 331.433 17.9743 333.124 18.8792L333.804 19.2494L344.629 19.3111H355.454L356.32 18.9409C358.093 18.036 358.979 16.617 358.979 14.6838C358.979 13.6967 358.897 13.0386 358.732 12.7095C358.196 11.6401 357.412 10.8586 356.381 10.365ZM324.65 0.123391C325.021 0.0411303 331.887 0 345.247 0H365.227L365.969 0.308483C367.041 0.760924 367.887 1.58355 368.505 2.77635L369 3.6401V25.2956L368.567 26.1594C368.32 26.6941 367.928 27.2082 367.392 27.7018C367.309 27.7841 367.227 27.8869 367.144 28.0103C366.691 28.4627 365.969 28.7301 364.979 28.8123C363.866 28.8946 360.093 28.9563 353.66 28.9974H353.598H353.536H353.474H353.412H353.351H353.289H353.227H353.165H353.103H353.041H352.979H352.918H352.856H352.794H352.732H352.67H352.608H352.546H352.485H352.423H352.361H352.299H352.237H352.175H352.113H352.052H351.99H351.928H351.866H351.804H351.742H351.68H351.619H351.557H351.495H351.433H351.371H351.309H351.247H351.186H351.124H351.062H351H350.938H350.876H350.814H350.753H350.691H350.629H350.567H350.505H350.443H350.381H350.32H350.258H350.196H350.134H350.072H350.01H349.948H349.887H349.825H349.701L334.052 29.0591L333.186 29.491C332.155 29.9846 331.392 30.7455 330.897 31.7738C330.691 32.1851 330.567 34.3856 330.526 38.3753L330.464 44.3599L329.969 45.2853C329.639 46.0668 329.082 46.7044 328.299 47.1979C327.557 47.7326 326.711 48 325.763 48C325.062 48 324.464 47.8972 323.969 47.6915C322.814 47.2802 321.948 46.4781 321.371 45.2853L321 44.545V3.51671L321.309 2.89974C321.639 2.24165 322.113 1.66581 322.732 1.17224C323.351 0.637531 323.99 0.287916 324.65 0.123391Z" fill="#00FF00"/>
</svg>
