<svg width="220" height="220" viewBox="0 0 220 220" fill="none" xmlns="http://www.w3.org/2000/svg">
<g clip-path="url(#clip0_304_33)">
<circle cx="110" cy="110" r="110" fill="#F5D3E4"/>
<path d="M96.1643 69.5167C94.5683 69.2887 94.4923 69.2127 95.2523 69.1367C96.6964 68.9086 100.04 69.2127 102.396 69.7447C107.869 71.0367 112.809 74.3807 118.053 80.2329L119.421 81.8289L121.397 81.5249C129.833 80.1569 138.497 81.2209 145.717 84.5649C147.693 85.4769 150.809 87.301 151.189 87.757C151.341 87.909 151.569 88.897 151.721 89.885C152.253 93.4571 152.025 96.1171 150.885 98.1692C150.277 99.3092 150.277 99.6132 150.657 100.601C150.961 101.361 151.873 101.893 152.709 101.893C154.533 101.893 156.433 99.0052 157.345 94.9771L157.725 93.3811L158.409 94.1411C162.286 98.4732 165.326 104.477 165.782 108.733L165.934 109.873L165.25 108.885C164.11 107.137 163.046 105.997 161.602 105.009C159.017 103.261 156.281 102.729 149.061 102.349C142.525 101.969 138.801 101.437 135.153 100.221C128.921 98.1692 125.729 95.5091 118.357 85.705C115.089 81.3729 113.037 79.0168 110.985 77.0408C106.501 72.7087 102.016 70.4287 96.1643 69.5167Z" fill="#FF007A"/>
<path d="M152.786 79.1685C152.938 76.2804 153.318 74.3804 154.154 72.6324C154.458 71.9483 154.762 71.3403 154.838 71.3403C154.914 71.3403 154.762 71.8723 154.534 72.4804C153.926 74.1524 153.85 76.5084 154.23 79.1685C154.762 82.5885 154.99 83.0445 158.638 86.7686C160.31 88.5166 162.286 90.7207 163.046 91.6327L164.338 93.3047L163.046 92.0887C161.45 90.5687 157.802 87.6806 156.966 87.3006C156.434 86.9966 156.358 86.9966 155.978 87.3766C155.674 87.6806 155.598 88.1366 155.598 90.3407C155.522 93.7607 155.066 95.8888 153.926 98.0928C153.318 99.2328 153.242 99.0048 153.774 97.7128C154.154 96.7248 154.23 96.2688 154.23 93.0007C154.23 86.3886 153.47 84.7926 148.834 82.1325C147.694 81.4485 145.717 80.4605 144.577 79.9285C143.361 79.3965 142.449 78.9405 142.525 78.9405C142.677 78.7885 147.161 80.0805 148.91 80.8405C151.57 81.9045 152.026 81.9805 152.33 81.9045C152.558 81.6765 152.71 81.0685 152.786 79.1685Z" fill="#FF007A"/>
<path d="M99.2798 90.493C96.0877 86.0849 94.0357 79.2448 94.4917 74.1527L94.6437 72.5566L95.4037 72.7086C96.7718 72.9366 99.1278 73.8487 100.268 74.5327C103.308 76.3567 104.676 78.8648 105.968 85.0969C106.348 86.9209 106.88 89.0489 107.108 89.733C107.488 90.873 108.932 93.533 110.148 95.2051C110.984 96.4211 110.452 97.0291 108.552 96.8771C105.664 96.5731 101.788 93.913 99.2798 90.493Z" fill="#FF007A"/>
<path d="M148.909 123.553C133.861 117.473 128.541 112.229 128.541 103.337C128.541 102.045 128.617 100.981 128.617 100.981C128.693 100.981 129.225 101.437 129.909 101.969C132.949 104.401 136.369 105.465 145.869 106.833C151.417 107.669 154.609 108.277 157.498 109.265C166.694 112.305 172.394 118.537 173.762 126.973C174.142 129.405 173.914 134.042 173.306 136.474C172.774 138.374 171.254 141.87 170.874 141.946C170.798 141.946 170.646 141.566 170.646 140.958C170.494 137.766 168.898 134.726 166.238 132.37C163.046 129.633 158.942 127.581 148.909 123.553Z" fill="#FF007A"/>
<path d="M138.269 126.062C138.117 124.922 137.737 123.478 137.509 122.87L137.129 121.729L137.813 122.566C138.801 123.706 139.561 125.074 140.245 126.974C140.777 128.418 140.777 128.874 140.777 131.23C140.777 133.51 140.701 134.042 140.245 135.334C139.485 137.386 138.573 138.83 137.053 140.426C134.317 143.238 130.745 144.758 125.653 145.442C124.741 145.518 122.157 145.746 119.877 145.898C114.177 146.202 110.376 146.81 106.956 148.026C106.5 148.178 106.044 148.33 105.968 148.254C105.816 148.102 108.172 146.734 110.072 145.822C112.733 144.53 115.469 143.846 121.473 142.782C124.437 142.326 127.477 141.718 128.237 141.414C135.761 139.058 139.485 133.206 138.269 126.062Z" fill="#FF007A"/>
<path d="M145.186 138.298C143.21 133.966 142.754 129.862 143.818 125.986C143.97 125.606 144.122 125.226 144.274 125.226C144.426 125.226 144.882 125.454 145.338 125.758C146.25 126.366 148.15 127.43 153.014 130.09C159.17 133.434 162.666 136.018 165.098 138.982C167.226 141.566 168.518 144.53 169.126 148.178C169.506 150.23 169.278 155.17 168.746 157.222C167.074 163.682 163.274 168.85 157.726 171.814C156.89 172.27 156.206 172.574 156.13 172.574C156.054 172.574 156.358 171.814 156.814 170.902C158.638 167.026 158.866 163.302 157.498 159.122C156.662 156.538 154.914 153.422 151.418 148.178C147.238 142.098 146.25 140.502 145.186 138.298Z" fill="#FF007A"/>
<path d="M88.5638 161.554C94.1879 156.842 101.104 153.498 107.488 152.434C110.224 151.978 114.784 152.13 117.292 152.814C121.32 153.878 124.968 156.158 126.868 158.97C128.693 161.706 129.529 164.062 130.365 169.306C130.669 171.358 131.049 173.486 131.125 173.942C131.733 176.678 132.949 178.806 134.469 179.947C136.825 181.695 140.929 181.771 144.957 180.251C145.641 180.023 146.249 179.795 146.249 179.871C146.401 180.023 144.349 181.391 142.981 182.075C141.081 183.063 139.561 183.367 137.509 183.367C133.861 183.367 130.745 181.467 128.237 177.666C127.705 176.906 126.64 174.702 125.728 172.65C123.068 166.494 121.7 164.67 118.584 162.618C115.848 160.87 112.352 160.49 109.692 161.782C106.196 163.454 105.284 167.938 107.716 170.674C108.704 171.814 110.528 172.726 112.048 172.954C114.86 173.334 117.292 171.13 117.292 168.318C117.292 166.494 116.608 165.43 114.784 164.594C112.352 163.53 109.692 164.746 109.768 167.102C109.768 168.09 110.224 168.698 111.212 169.154C111.82 169.458 111.82 169.458 111.364 169.382C109.16 168.926 108.628 166.19 110.376 164.442C112.504 162.314 116.988 163.226 118.508 166.19C119.116 167.406 119.192 169.838 118.66 171.358C117.368 174.702 113.72 176.45 109.996 175.462C107.488 174.778 106.424 174.094 103.384 170.978C98.064 165.506 96.0119 164.442 88.4118 163.302L86.9678 163.074L88.5638 161.554Z" fill="#FF007A"/>
<path fill-rule="evenodd" clip-rule="evenodd" d="M48.5874 39.2681C66.2957 60.7764 93.5802 94.2171 94.9483 96.0411C96.0883 97.5611 95.6323 99.0051 93.7322 100.069C92.6682 100.677 90.4642 101.285 89.4002 101.285C88.1841 101.285 86.7401 100.677 85.7521 99.6892C85.0681 99.0051 82.104 94.6731 75.4159 84.2609C70.3238 76.2807 65.9917 69.6686 65.9157 69.5926C65.6117 69.4406 65.6117 69.4406 74.8839 86.0089C80.736 96.4211 82.636 100.145 82.636 100.601C82.636 101.589 82.332 102.121 81.116 103.489C79.064 105.769 78.152 108.353 77.468 113.749C76.7079 119.754 74.6559 124.01 68.8038 131.23C65.3837 135.486 64.8517 136.246 64.0157 137.994C62.9517 140.122 62.6477 141.338 62.4957 144.074C62.3437 146.962 62.6477 148.786 63.4837 151.522C64.2437 153.954 65.0797 155.55 67.1318 158.666C68.8798 161.402 69.9438 163.454 69.9438 164.214C69.9438 164.822 70.0958 164.822 72.8319 164.214C79.368 162.694 84.7641 160.11 87.7281 156.918C89.5522 154.942 90.0082 153.878 90.0082 151.142C90.0082 149.394 89.9322 149.014 89.4762 147.95C88.7162 146.278 87.2721 144.91 84.1561 142.782C80.052 139.97 78.304 137.69 77.848 134.65C77.468 132.066 77.924 130.318 80.204 125.53C82.56 120.59 83.1681 118.537 83.5481 113.521C83.7761 110.329 84.1561 109.037 85.0681 108.049C86.0561 106.985 86.8921 106.605 89.2482 106.301C93.1242 105.769 95.6323 104.781 97.6083 102.881C99.3563 101.285 100.116 99.6892 100.192 97.3331L100.268 95.5851L99.2803 94.5211C95.7083 90.417 46.2314 36 46.0034 36C45.9274 36 47.1434 37.444 48.5874 39.2681ZM71.9199 147.342C72.7559 145.898 72.2999 144.074 70.9318 143.162C69.6398 142.326 67.6638 142.706 67.6638 143.846C67.6638 144.15 67.8158 144.454 68.2718 144.606C68.9558 144.986 69.0318 145.366 68.4998 146.202C67.9678 147.038 67.9678 147.798 68.6518 148.33C69.7158 149.166 71.1598 148.71 71.9199 147.342Z" fill="#FF007A"/>
<path fill-rule="evenodd" clip-rule="evenodd" d="M102.701 107.365C100.877 107.897 99.1286 109.874 98.5966 111.85C98.2926 113.066 98.4446 115.27 98.9766 115.954C99.8126 117.018 100.573 117.322 102.701 117.322C106.881 117.322 110.453 115.498 110.833 113.294C111.213 111.47 109.617 108.961 107.413 107.821C106.273 107.213 103.917 106.985 102.701 107.365ZM107.565 111.166C108.173 110.254 107.945 109.266 106.805 108.581C104.753 107.289 101.637 108.353 101.637 110.33C101.637 111.318 103.233 112.382 104.753 112.382C105.741 112.382 107.109 111.774 107.565 111.166Z" fill="#FF007A"/>
</g>
<defs>
<clipPath id="clip0_304_33">
<rect width="220" height="220" fill="white"/>
</clipPath>
</defs>
</svg>
