<svg width="220" height="220" viewBox="0 0 220 220" fill="none" xmlns="http://www.w3.org/2000/svg">
<g clip-path="url(#clip0_108_439)">
<path d="M110 220C170.751 220 220 170.751 220 110C220 49.2487 170.751 0 110 0C49.2487 0 0 49.2487 0 110C0 170.751 49.2487 220 110 220Z" fill="black"/>
<path d="M159.019 63.8819L142.519 72.2969L62.7825 112.908C61.6465 104.18 62.9574 95.3092 66.569 87.2835C70.1807 79.2579 75.951 72.3935 83.2363 67.4561C90.5216 62.5186 99.0355 59.7023 107.828 59.3213C116.621 58.9402 125.346 61.0095 133.031 65.2982L142.478 60.4857L143.887 59.7638C134.925 53.2607 124.29 49.4577 113.237 48.8039C102.184 48.1501 91.1746 50.6728 81.5089 56.0742C71.8433 61.4755 63.9251 69.53 58.6894 79.2863C53.4537 89.0426 51.1191 100.093 51.9613 111.134C52.1189 113.21 51.6586 115.287 50.6383 117.103C49.618 118.918 48.0833 120.391 46.2275 121.336L41.2432 123.88V135.733L55.9144 128.253L60.665 125.826L65.3469 123.44L149.401 80.6088L158.847 75.8032L178.372 65.8551V54.0094L159.019 63.8819ZM178.379 77.7144L70.1319 132.824L60.6857 137.637L41.25 147.558V159.403L60.555 149.572L77.0619 141.157L156.881 100.484C158.034 109.225 156.732 118.114 153.121 126.157C149.509 134.199 143.73 141.078 136.431 146.023C129.132 150.968 120.601 153.784 111.793 154.156C102.984 154.528 94.246 152.44 86.5563 148.128L85.9719 148.438L75.7282 153.663C84.691 160.169 95.3291 163.975 106.385 164.629C117.442 165.283 128.454 162.759 138.122 157.355C147.79 151.95 155.709 143.892 160.943 134.131C166.177 124.37 168.508 113.315 167.661 102.272C167.505 100.197 167.965 98.1229 168.984 96.309C170.003 94.4952 171.535 93.0226 173.388 92.0763L178.379 89.5326V77.7213V77.7144Z" fill="white"/>
</g>
<defs>
<clipPath id="clip0_108_439">
<rect width="220" height="220" fill="white"/>
</clipPath>
</defs>
</svg>
