<svg width="220" height="220" viewBox="0 0 220 220" fill="none" xmlns="http://www.w3.org/2000/svg">
<g clip-path="url(#clip0_108_17)">
<path d="M110 220.23C131.756 220.23 153.023 213.779 171.113 201.692C189.202 189.605 203.301 172.425 211.627 152.325C219.952 132.225 222.131 110.108 217.886 88.7701C213.642 67.4322 203.166 47.8321 187.782 32.4483C172.398 17.0645 152.798 6.58802 131.46 2.34365C110.122 -1.90073 88.0047 0.277641 67.9048 8.60328C47.805 16.9289 30.6253 31.0279 18.5383 49.1173C6.45139 67.2067 0 88.4741 0 110.23C0 139.404 11.5893 167.383 32.2183 188.012C52.8473 208.641 80.8262 220.23 110 220.23Z" fill="white"/>
<path d="M163 61.6102L145.23 70.6102L59.44 114.31C58.2316 104.928 59.6511 95.3935 63.5404 86.7698C67.4297 78.146 73.6361 70.7709 81.4686 65.4656C89.3012 60.1603 98.4525 57.1329 107.904 56.7206C117.355 56.3083 126.735 58.5272 135 63.1302L145.15 58.0002L146.67 57.2302C137.359 50.4708 126.361 46.4165 114.89 45.5151C103.419 44.6137 91.9229 46.9003 81.6703 52.1224C71.4176 57.3444 62.8078 65.2986 56.7919 75.1065C50.7759 84.9144 47.5879 96.1943 47.58 107.7C47.58 109.29 47.64 110.87 47.76 112.45C47.9294 114.688 47.4342 116.925 46.3365 118.882C45.2388 120.839 43.5876 122.428 41.59 123.45L36.23 126.18V138.93L52.02 130.93L57.13 128.32L62.13 125.75L152.6 79.6102L162.77 74.4402L183.77 63.7302V51.0002L163 61.6102Z" fill="black"/>
<path d="M183.77 76.4902L67.3 135.79L57.14 141L36.23 151.64V164.38L57 153.79L74.76 144.79L160.64 101C160.928 103.225 161.072 105.467 161.07 107.71C161.056 116.618 158.716 125.367 154.28 133.091C149.844 140.815 143.466 147.246 135.78 151.747C128.093 156.248 119.364 158.662 110.457 158.75C101.55 158.838 92.7744 156.598 85 152.25L84.38 152.58L73.38 158.2C82.6932 164.961 93.6942 169.016 105.167 169.916C116.641 170.816 128.139 168.527 138.393 163.301C148.647 158.076 157.256 150.117 163.27 140.305C169.284 130.493 172.468 119.209 172.47 107.7C172.47 106.1 172.41 104.49 172.29 102.91C172.116 100.673 172.608 98.4349 173.704 96.4773C174.8 94.5197 176.452 92.9305 178.45 91.9102L183.82 89.1802L183.77 76.4902Z" fill="black"/>
</g>
<defs>
<clipPath id="clip0_108_17">
<rect width="220" height="220" fill="white"/>
</clipPath>
</defs>
</svg>
