<svg width="24" height="24" viewBox="0 0 24 24" fill="none" xmlns="http://www.w3.org/2000/svg">
<g clip-path="url(#clip0_3598_2121)">
<path d="M12 24C18.6274 24 24 18.6274 24 12C24 5.37258 18.6274 0 12 0C5.37258 0 0 5.37258 0 12C0 18.6274 5.37258 24 12 24Z" fill="#F0F0F0"/>
<path d="M3.51471 20.4862C-1.17157 15.7999 -1.17157 8.20195 3.51471 3.51562C3.51438 3.51614 10.4348 12.0009 10.4348 12.0009L3.51471 20.4862Z" fill="black"/>
<path d="M10.4351 11.9994L1.59187 6.02344C1.31769 6.50002 1.07591 6.99745 0.868164 7.51233L5.34515 11.9994L0.868305 16.4868C1.07587 17.0013 1.31741 17.4984 1.5914 17.9746L10.4351 11.9994Z" fill="#FFDA44"/>
<path d="M23.8982 10.4355H10.4342L3.51434 3.51562C2.76865 4.26131 2.12079 5.10464 1.59129 6.02484L7.55562 12.0007L1.59082 17.9759C2.12032 18.8963 2.76846 19.7399 3.51434 20.4858L10.4342 13.5659H23.8982C23.9649 13.0536 23.9997 12.5312 23.9997 12.0007C23.9997 11.4703 23.9649 10.9479 23.8982 10.4355V10.4355Z" fill="#6DA544"/>
<path d="M4.69434 21.5196C6.71788 23.075 9.25087 24.0004 12.0004 24.0004C17.5447 24.0004 22.21 20.24 23.587 15.1309H11.0832L4.69434 21.5196Z" fill="#0052B4"/>
<path d="M23.587 8.86955C22.21 3.76036 17.5447 0 12.0004 0C9.25087 0 6.71788 0.925359 4.69434 2.48077L11.0831 8.86955H23.587Z" fill="#D80027"/>
</g>
<defs>
<clipPath id="clip0_3598_2121">
<rect width="24" height="24" fill="white"/>
</clipPath>
</defs>
</svg>
